<?xml version="1.0" encoding="utf-8"?>
<!-- Generator: Adobe Illustrator 27.3.1, SVG Export Plug-In . SVG Version: 6.00 Build 0)  -->
<svg version="1.1" id="Calque_1" xmlns="http://www.w3.org/2000/svg" xmlns:xlink="http://www.w3.org/1999/xlink" x="0px" y="0px"
	 viewBox="0 0 344.8 344.8" style="enable-background:new 0 0 344.8 344.8;" xml:space="preserve">
<style type="text/css">
	.st0{fill:#0F0042;}
</style>
<g>
	<path class="st0" d="M172.2,0c95-0.2,172.3,76.8,172.6,172c0.3,95.1-76.9,172.5-172.2,172.8c-94.9,0.3-172.3-77-172.6-172
		C-0.3,77.6,76.9,0.2,172.2,0z M172.3,20.3c-84.1,0-151.9,67.8-152,152c-0.1,84.1,68,152.3,152.2,152.2c84.1-0.1,151.9-67.8,152-152
		C324.6,88.4,256.5,20.3,172.3,20.3z"/>
	<path class="st0" d="M172.3,311.2c-45.9-1.3-83.1-19.9-111.3-56.4c-1.9-2.5-2-4.3-0.4-7c4.9-8.2,11.9-14.1,19.7-19.1
		c15-9.6,30.5-18.4,47.2-24.8c2.7-1,5.3-2.2,7.7-3.7c7.5-4.5,9.9-12.5,5.8-20.4c-1.6-3.1-3.8-5.9-5.9-8.6
		c-12.1-15.6-20.7-32.8-23.6-52.6c-2.3-16.1-1.7-31.9,5.1-46.9c9.3-20.5,25.8-31.4,47.9-34c10.2-1.2,20.2-0.7,30,2.5
		c22.6,7.5,35.2,23.8,39.3,46.6c5.1,28.2-2.1,53.8-18.5,77.1c-2.1,3-4.5,5.7-6.4,8.8c-2,3.4-4,6.9-5.2,10.7
		c-2.5,7.9-0.4,13.8,6.8,17.9c5.4,3.1,11.2,5.5,16.9,7.8c14,5.6,27.8,11.8,40.2,20.5c6.9,4.9,12.9,10.6,17.1,18.1
		c1.3,2.4,1.5,4.2-0.4,6.6C256,291.2,218.7,309.9,172.3,311.2z"/>
</g>
</svg>
