<?xml version="1.0" encoding="utf-8"?>
<!-- Generator: Adobe Illustrator 27.3.1, SVG Export Plug-In . SVG Version: 6.00 Build 0)  -->
<svg version="1.1" id="Calque_1" xmlns="http://www.w3.org/2000/svg" xmlns:xlink="http://www.w3.org/1999/xlink" x="0px" y="0px"
	 viewBox="0 0 43.2 43.1" style="enable-background:new 0 0 43.2 43.1;" xml:space="preserve">
<style type="text/css">
	.st0{fill:#FF4D00;}
</style>
<path class="st0" d="M13.5,21.4c0.4,0.4,0.6,0.6,0.8,0.8c5.8,5.8,11.6,11.6,17.5,17.5c0.2,0.2,0.6,0.6,0.8,0.8
	c0.4,0.6,0.2,1.5-0.2,2.1c-0.6,0.4-1.2,0.6-1.9,0.2c-0.2-0.2-0.6-0.4-0.8-0.6c-6-6-12.3-12.3-18.3-18.3c-1.7-1.7-1.7-3.1,0-4.8
	c6-6,12.3-12.3,18.3-18.3c0.2-0.2,0.4-0.4,0.8-0.6c0.6-0.4,1.5-0.2,1.9,0.2c0.6,0.6,0.6,1.2,0.2,1.9c-0.2,0.4-0.4,0.6-0.8,1
	C26,9.2,20.2,15,14.4,20.8C14.4,21,14,21.2,13.5,21.4z"/>
</svg>
