<?xml version="1.0" encoding="utf-8"?>
<!-- Generator: Adobe Illustrator 27.3.1, SVG Export Plug-In . SVG Version: 6.00 Build 0)  -->
<svg version="1.1" id="Calque_1" xmlns="http://www.w3.org/2000/svg" xmlns:xlink="http://www.w3.org/1999/xlink" x="0px" y="0px"
	 viewBox="0 0 409 408.8" style="enable-background:new 0 0 409 408.8;" xml:space="preserve">
<style type="text/css">
	.st0{fill:#0F0042;}
	.st1{fill:#FFFFFF;}
</style>
<g>
	<path class="st0" d="M393.7,408.8c-3.1-2.5-6.4-4.6-9.2-7.4c-58.7-58.6-117.4-117.3-176.1-176c-1.2-1.2-2.3-2.6-5.1-4.8
		c-0.9,1.5-1.5,3.3-2.7,4.5C142,283.9,83.2,342.7,24.3,401.4c-2.8,2.8-6.1,4.9-9.2,7.4c-2.1,0-4.3,0-6.4,0c-2.9-2.9-5.9-5.9-8.8-8.8
		c0-2.1,0-4.3,0-6.4c2.5-3.1,4.6-6.4,7.4-9.2c58.6-58.7,117.3-117.4,176-176c1.2-1.2,2.7-2.2,4-3.2c0.2-0.6,0.5-1.3,0.7-1.9
		c-1.5-0.9-3.3-1.5-4.5-2.7C124.9,141.9,66.1,83.1,7.4,24.3c-2.8-2.8-5-6.1-7.4-9.2c0-2.1,0-4.3,0-6.4c0.6-1,1.2-2,1.8-3
		c3.8-6.1,11.6-7.6,17.4-3.4c1.5,1.1,2.8,2.5,4.1,3.8c59.2,59.2,118.4,118.4,177.6,177.6c1.1,1.1,1.8,2.6,2.7,3.9
		c0.6,0,1.2,0.1,1.9,0.1c1-1.4,1.7-3.1,2.9-4.3C267.5,124.3,326.7,65.2,385.9,6c1.3-1.3,2.6-2.7,4.1-3.7c4.8-3.4,11.2-2.8,15.3,1.3
		c4.1,4.2,4.7,10.5,1.3,15.3c-1.1,1.5-2.4,2.8-3.8,4.1c-59.1,59.1-118.2,118.2-177.3,177.3c-1.2,1.2-2.6,2.3-4.4,3.7
		c1.6,1.6,2.7,2.8,3.9,4c59.5,59.5,119,118.9,178.4,178.4c5.5,5.5,7.1,10.5,3.9,15.6c-1.7,2.7-4.8,4.6-7.3,6.8
		C398,408.8,395.9,408.8,393.7,408.8z"/>
	<path class="st1" d="M0,400c2.9,2.9,5.9,5.9,8.8,8.8"/>
</g>
</svg>
