<?xml version="1.0" encoding="utf-8"?>
<!-- Generator: Adobe Illustrator 27.3.1, SVG Export Plug-In . SVG Version: 6.00 Build 0)  -->
<svg version="1.1" id="Calque_1" xmlns="http://www.w3.org/2000/svg" xmlns:xlink="http://www.w3.org/1999/xlink" x="0px" y="0px"
	 viewBox="0 0 351.7 320.5" style="enable-background:new 0 0 351.7 320.5;" xml:space="preserve">
<style type="text/css">
	.st0{fill:#0F0042;}
</style>
<g>
	<path class="st0" d="M303.4,164.6c-1.2,8.3-2.2,16.1-3.3,24.2c7.4-4,15.3-6.6,23.2-4.4c8.8,2.5,17.1,6.5,25.5,10.2
		c2.3,1,3.3,3.9,1.7,6.1c-7.2,10.2-14.3,20.6-27.6,23.9c-8.7,2.1-17.1,1.2-25.1-2.8c-2.8-1.4-5.6-2.6-8.6-4
		c-4.4,6.8-8.7,13.5-13.1,20.3c3.5,0.3,7,0.3,10.3,0.9c7.3,1.4,13.7,4.7,18.7,10.2c4,4.4,7.8,9.1,11.6,13.7c2.4,3,2.3,6.5-0.7,8.1
		c-7.5,3.9-14.7,8.6-23.3,9.7c-13,1.7-23.8-2.7-32.3-12.6c-2.3-2.6-4.5-5.3-6.6-7.9c-7,4.4-13.7,8.6-20.4,12.9
		c0.1,0.1,0.1,0.4,0.3,0.5c12.6,5,20,14.4,22.9,27.5c0.9,3.9,2.1,7.7,3,11.6c1,4.5-0.8,7.2-5.4,7.3c-7.1,0.1-14.4,0.7-21.2-0.6
		c-13.6-2.7-22.3-11.6-26.3-24.8c-1.1-3.4-1.9-7-3-11c-18.5,3.8-36.9,4.1-55.6-0.1c-1,3.6-2,6.9-2.9,10.2
		c-4.7,16.8-18.2,27-35.6,26.8c-4,0-8-0.1-12-0.4c-4.7-0.3-6.7-2.7-5.6-7.2c1.5-6,3-12.1,5-18c3.2-9.3,9.6-15.9,18.5-20.1
		c1-0.5,2-0.9,3.1-1.5c-6.9-4.4-13.6-8.6-20.6-13c-1.9,2.3-4,4.7-6.1,7.2c-11.8,14-28.3,17.5-44.8,9.5c-3.5-1.7-7-3.4-10.4-5.2
		c-3.8-2-4.6-5.3-1.9-8.6c3.9-4.8,7.9-9.7,12.1-14.2c7.1-7.5,15.4-10.4,28.7-10.6c-4.3-6.7-8.6-13.4-13.2-20.4
		c-2.8,1.3-5.8,2.6-8.8,4c-16.9,7.6-32.9,3.8-44.5-10.7c-2.4-3-4.9-6-7.2-9.1c-2.1-2.8-2-6.3,0.8-7.5c8.5-3.8,17-7.8,25.9-10.4
		c7.8-2.2,15.5,0.3,22.9,4.4c-1.1-8.2-2.2-16-3.4-24.6c-5,0-10.1,0.5-15.1-0.1c-14.8-1.9-24.5-10.3-29.3-24.4
		c-1.6-4.8-2.6-9.9-3.7-14.9c-0.8-3.7,1-6.6,4.6-6.7c7.7-0.1,15.5-0.5,23.2,0.5c9.6,1.2,17,6.7,22.9,14.8c2.5-7.9,4.8-15.4,7.2-23.3
		c-2.4-1.1-5-2.5-7.7-3.7c-17.7-8.3-25-22.7-21.3-41.8c0.7-3.7,1.4-7.4,2.2-11c1-4,3.9-5.5,7.7-3.8c5.8,2.6,11.7,5.1,17.2,8.2
		c9.6,5.4,15.1,13.9,17.3,25c5.5-6.1,10.9-12,16.4-18.1c-2.4-2.9-4.9-5.9-7.3-8.9C72.4,43.4,72,26.7,81.4,13.4
		c2.5-3.6,5.1-7.1,7.7-10.6c2.8-3.6,6.1-3.7,9.1-0.3c3.9,4.5,7.9,9,11.5,13.8c8.8,11.7,9.4,27.6,1.2,39.6
		c-4.4,6.4-9.5,12.5-14.9,18.1c-32.9,33.1-44.8,72.4-32,117.2c12.8,45,43.7,72.9,89.4,82.5c65,13.7,128.7-31.5,137.9-97.2
		c5.8-41.6-7.7-76.4-38.2-105.2c-8.5-8-15.8-17.4-17.4-29.8c-1.2-9.2,1-17.7,6.5-25.1c3.6-4.9,7.7-9.5,11.7-14.1
		c2.5-2.8,5.8-3.4,7.8-0.8c6,7.7,12.9,15,14.8,25.2c2.1,10.7-0.1,20.3-6.8,28.9c-2.4,3.1-5.1,6.2-7.6,9.3c5.4,6,10.7,11.8,16.3,18
		c0.3-0.9,0.6-1.7,0.8-2.6c2.7-11,9.3-18.9,19.4-23.8c4.6-2.2,9.2-4.4,13.9-6.5c4.3-1.9,7.5-0.5,8.3,4.2c1.2,7.8,3.1,15.8,2.7,23.6
		c-0.6,11.7-7.2,20.5-17.4,26.3c-3.9,2.2-8,4-12.1,6c2.3,7.6,4.7,15.2,7.4,24.1c0.7-1.3,1-2.2,1.6-3c6.8-8.3,15.5-12.8,26.2-13.2
		c5.6-0.2,11.2-0.2,16.8-0.1c4.8,0.1,6.8,2.8,5.7,7.4c-1,4.2-2,8.5-3.1,12.7c-4.4,15.9-17.5,26.1-34,26.4
		C310.7,164.7,307.1,164.6,303.4,164.6z M104.2,309.6c18.7,2.6,30.6-7.2,32.8-27C118.3,280.1,106.3,289.9,104.2,309.6z M337,201
		c-15.9-11.1-31.7-8.1-41.8,7.9C311.9,219.8,327.4,216.9,337,201z M97,56.9c13.1-13.5,11.8-29.7-3.1-42.6
		C83.7,25.4,79.5,39.9,97,56.9z M254.7,56.8c17.3-15.7,13.7-32,2.8-42.3C240,31.1,244.3,46.3,254.7,56.8z M40.6,62.4
		c-6.3,17.4,1.6,32,20.7,37.1C67.2,82.5,60.6,70.5,40.6,62.4z M290.8,99.7c22.9-7.1,25.7-24.2,20.2-37.2
		C291.2,70.7,283.7,84.5,290.8,99.7z M56.5,208.8c-10.1-16-26-19-41.8-7.8C24.4,216.9,40.6,219.9,56.5,208.8z M247.5,309.6
		c-1.9-19-13.7-30-32.8-26.9C217,302.3,229.5,312.5,247.5,309.6z M304.9,153.9c20.5,2.2,32.8-6.7,34.5-24.9
		C320.5,126.2,307.4,134.3,304.9,153.9z M46.8,153.8c-1.9-18.6-14.9-27.9-34.5-24.7C15.1,148,27.3,156.7,46.8,153.8z M88.7,254.6
		C72,244,57.5,248.9,47.5,265.2C63.2,275.4,77.6,271.8,88.7,254.6z M263,254.8c13.9,20.8,29.8,18.4,41.4,10.3
		C293.2,248,279.2,244.4,263,254.8z"/>
	<path class="st0" d="M176,95.2c2.2,2.5,4.2,4,5.3,5.9c5.2,10.1,10.2,20.2,15.1,30.5c1.1,2.4,2.6,3.6,5.2,3.9
		c11,1.4,22,3.1,32.9,4.7c2.7,0.4,5.6,0.7,6.6,3.9c1.1,3.2-0.9,5.2-2.9,7.1c-8.1,7.9-16.2,15.9-24.4,23.7c-1.6,1.6-2,3-1.6,5.2
		c2.1,11.4,4.1,22.8,5.8,34.3c0.3,2-0.4,5.3-1.8,6.1c-1.6,1-4.9,0.9-6.8-0.1c-10.3-5.1-20.4-10.5-30.5-15.9c-2.2-1.2-3.9-1.1-6.1,0
		c-10,5.4-20,10.6-30.1,15.9c-2.4,1.3-4.9,2.2-7.3,0.3c-2.3-1.8-2.2-4.1-1.7-6.8c2-11.3,3.8-22.6,5.9-33.9c0.4-2.2,0-3.7-1.6-5.2
		c-8.2-7.8-16.3-15.8-24.4-23.7c-2-2-4-3.9-2.9-7.1c1.1-3.2,3.9-3.5,6.6-3.9c11.1-1.6,22.2-3.2,33.3-4.7c2.3-0.3,3.6-1.3,4.7-3.5
		c5-10.4,10.1-20.8,15.4-31.1C171.7,99,173.7,97.6,176,95.2z M175.9,113.8c-4.5,9.1-8.7,17.2-12.6,25.6c-1.8,3.9-4.3,5.6-8.5,6.1
		c-9.1,1.1-18.1,2.6-27.8,4c1.2,1.3,2,2.2,2.9,3.1c6.1,6,12.5,11.9,18.4,18.1c1.5,1.5,2.3,4.4,2.2,6.6c-0.2,4.2-1.3,8.4-2,12.5
		c-0.9,5.6-1.8,11.1-2.9,17.4c6.2-3.2,12.1-5.4,16.9-9c9.2-6.8,17.5-6.7,26.7-0.1c5,3.6,10.8,5.8,16.8,8.9c-0.3-1.9-0.4-3.1-0.6-4.4
		c-1.4-8.4-2.7-16.7-4.3-25.1c-0.6-3.1,0.3-5.2,2.4-7.3c6.2-5.9,12.3-12,18.5-18c0.8-0.8,1.5-1.7,2.6-2.9c-10-1.4-19.2-2.9-28.5-4
		c-3.6-0.5-5.9-1.9-7.4-5.3C184.8,131.5,180.5,123.1,175.9,113.8z"/>
</g>
</svg>
