<?xml version="1.0" encoding="utf-8"?>
<!-- Generator: Adobe Illustrator 27.3.1, SVG Export Plug-In . SVG Version: 6.00 Build 0)  -->
<svg version="1.1" id="Calque_1" xmlns="http://www.w3.org/2000/svg" xmlns:xlink="http://www.w3.org/1999/xlink" x="0px" y="0px"
	 viewBox="0 0 383.2 357.5" style="enable-background:new 0 0 383.2 357.5;" xml:space="preserve">
<style type="text/css">
	.st0{fill:#FF4D00;}
</style>
<g>
	<path class="st0" d="M0,101.7c1-5.5,1.8-11,3.1-16.4C13.9,39,53.7,4.4,100.9,0.5c34.3-2.8,63.8,8.1,88.4,32
		c0.4,0.4,0.9,0.9,1.3,1.3c0.2,0.2,0.4,0.3,1,0.7c26.6-26.3,58.5-38.4,96-33.5c27.7,3.7,50.7,16.6,69,37.7
		c35,40.4,37.2,104.2-3.4,148c9.5,11.5,12.1,24.2,5,37.7c-7,13.4-19,18.4-34.1,17.1c0.4,10.6-2.4,19.9-10.1,27.2
		c-7.7,7.4-17.1,9.8-28,8.6c0.7,12.4-3.3,22.8-13.5,30.1c-10.2,7.3-21.2,7.9-31.9,3.4c-13.3,12.7-26.3,25.3-39.5,37.6
		c-17.1,15.9-43.8,10.3-52.5-10.8c-2.3-5.6-3.1-11.5-2-18c-10.6,0.6-20.1-2.2-27.4-10c-7.3-7.7-9.9-17.1-8.5-28
		c-10.6,0.8-19.9-2.1-27.3-9.9c-7.5-7.8-9.9-17.3-8.6-27.7c-3.9-0.4-7.7-0.4-11.2-1.3c-18.6-4.4-29.2-23.2-23.3-41.3
		c0.8-2.5,0.2-3.8-1.4-5.5C29,185.8,19.6,175.4,13,162.7c-6.8-12.9-11-26.5-12.4-41c-0.1-0.7-0.4-1.4-0.6-2.1
		C0,113.7,0,107.7,0,101.7z M208.3,260.9c4,0.5,7.8,0.5,11.3,1.4c14.9,3.7,24.8,16.7,24.3,32.2c-0.1,3.4,1.1,4.6,4,5.5
		c10.7,3.1,21.7-2.9,24.7-13.6c2.1-7.8-0.3-14.4-5.8-20.1c-27.2-28.7-54.3-57.5-81.5-86.3c-0.9-0.9-1.8-1.8-2.5-2.8
		c-2.3-2.9-2.1-6.4,0.4-8.8c2.4-2.3,6-2.3,8.8,0.1c0.7,0.6,1.2,1.2,1.8,1.9c17.6,18.6,35.1,37.2,52.6,55.8
		c10.2,10.8,20.3,21.7,30.6,32.4c7.9,8.2,19.9,8.6,27.9,1.2c8.2-7.6,8.5-19.4,0.8-28.2c-1.3-1.5-2.7-2.9-4.1-4.4
		c-26.5-28-52.9-56.1-79.4-84.1c-1.2-1.2-2.4-2.7-2.9-4.2c-0.9-2.9,0.1-5.4,2.7-7.1c2.8-1.7,5.8-1.1,8.7,1.9
		c16,16.9,32,33.9,48.1,50.9c11.9,12.6,23.8,25.2,35.7,37.8c6.7,7.1,15.8,8.8,23.8,4.7c12-6.1,14.4-21.5,4.9-31.7
		c-20.1-21.4-40.2-42.7-60.3-64c-13.7-14.5-27.4-29-41.1-43.5c-4.1-4.4-7.1-4.5-11.5-0.4c-1.6,1.4-3.1,2.9-4.6,4.4
		c-13.8,13-27.5,26.1-41.4,39c-14.7,13.7-35.7,14.8-51,3c-14.5-11.2-15.5-29.5-2.2-42.1c9.8-9.3,19.6-18.5,29.4-27.7
		c7.1-6.8,14.3-13.5,21.8-20.6c-26.2-25.7-57.1-36.4-92.5-28.1c-41,9.5-66.8,36-75,77.3c-7.5,37.7,6,68.9,33.9,94.7
		c1.1-1,2-1.7,2.9-2.6c10.3-9.7,20.4-19.5,30.8-29c18.4-16.7,47.4-7.7,53.3,16.5c1,4.1,0.8,8.6,1.2,13.2c10.1-0.9,19.3,2.2,26.6,9.9
		c7.5,7.8,9.9,17.3,8.6,27.9C193,221.8,210.8,238,208.3,260.9z M344.1,177.5c1.1-1.2,2-2.1,2.8-3c18.9-22.6,27-48.6,22.5-77.6
		c-5.9-38-27.2-64.9-63.3-78.1c-36.2-13.2-70-6.6-99,19c-23.3,20.7-45.5,42.6-68.1,64c-6.3,5.9-6,14.2,0.3,20.1
		c10.5,9.8,25.8,9.5,36.8-0.9c15.3-14.3,30.5-28.8,45.7-43.1c9.2-8.7,20.4-8.4,29.1,0.7c11.8,12.5,23.6,25,35.4,37.5
		C305.5,136.6,324.6,156.9,344.1,177.5z M109,269c2.1-0.9,6.7-1.7,9.8-4.4c12.3-10.9,24.3-22.2,36-33.8c7.2-7.2,6.5-19.1-0.5-26.5
		c-7-7.3-18.9-8.5-26.4-1.7c-12.2,10.9-24.1,22.1-35.6,33.7c-5.9,5.9-6.7,13.5-3.2,21.2C92.4,264.9,98.6,268.5,109,269z
		 M158.7,325.3c0.4,7.8,3.9,14.2,11.6,17.7c7.8,3.6,15.2,2.3,21.5-3.4c11.4-10.4,22.6-21,33.7-31.8c7.8-7.7,7.7-19.8,0.2-27.6
		c-7.3-7.6-19.4-8.1-27.3-0.9c-11.3,10.4-22.3,21-33.4,31.5C161,314.7,159,319.4,158.7,325.3z M123.7,178.2
		c-0.2-6.4-4-12.6-11.6-16.1c-7.7-3.4-15-2.3-21.2,3.4c-11.3,10.4-22.5,20.9-33.5,31.6c-7.9,7.7-8.1,19.8-0.7,27.6
		c7.4,7.9,19.4,8.6,27.6,1.1c11.4-10.5,22.6-21.2,33.7-31.9C121.8,190.2,123.7,185.5,123.7,178.2z M144.7,307
		c2.2-0.9,6.8-1.8,9.9-4.5c12.1-10.8,23.9-21.8,35.4-33.3c7.2-7.2,6.7-19-0.3-26.4c-7.1-7.6-18.9-8.8-26.7-1.8
		c-12,10.7-23.7,21.8-35,33.1c-5.9,5.9-6.7,13.5-3.3,21.2C128.2,302.9,134.4,306.4,144.7,307z"/>
</g>
</svg>
