<?xml version="1.0" encoding="utf-8"?>
<!-- Generator: Adobe Illustrator 27.3.1, SVG Export Plug-In . SVG Version: 6.00 Build 0)  -->
<svg version="1.1" id="Calque_1" xmlns="http://www.w3.org/2000/svg" xmlns:xlink="http://www.w3.org/1999/xlink" x="0px" y="0px"
	 viewBox="0 0 359.7 312.4" style="enable-background:new 0 0 359.7 312.4;" xml:space="preserve">
<style type="text/css">
	.st0{fill:#FF4D00;}
</style>
<g>
	<path class="st0" d="M179.1,39.9c5.2-4.8,10-9.7,15.3-14C227.3-0.8,263.6-8,302.9,9.7c29,13.1,45.7,37.2,53,67.6
		c9.1,37.9,2.1,73.2-21.4,104.4c-6.8,9.1-15.7,16.7-24,24.6c-39.5,37.1-80.8,72-125,103.5c-4.9,3.5-6.4,3.5-11.3,0
		c-49.9-35.6-96.3-75.4-140.2-118c-19.7-19.1-29.7-43.1-33-70C-2.2,96,2,71.3,15.1,48.6C42,1.8,100.2-13.5,147.6,13.4
		c11.4,6.5,21.3,14.7,29.8,24.7C178.2,39,178.9,39.7,179.1,39.9z"/>
</g>
</svg>
