<?xml version="1.0" encoding="utf-8"?>
<!-- Generator: Adobe Illustrator 27.3.1, SVG Export Plug-In . SVG Version: 6.00 Build 0)  -->
<svg version="1.1" id="Calque_1" xmlns="http://www.w3.org/2000/svg" xmlns:xlink="http://www.w3.org/1999/xlink" x="0px" y="0px"
	 viewBox="0 0 393.3 393.5" style="enable-background:new 0 0 393.3 393.5;" xml:space="preserve">
<style type="text/css">
	.st0{fill:#FF4D00;stroke:#FFFFFF;stroke-width:8;stroke-miterlimit:10;}
</style>
<g>
	<path class="st0" d="M5,208.8c0-8,0-16,0-24c0.2-1.1,0.5-2.2,0.6-3.3c1.5-9.7,2.3-19.6,4.6-29.1C38.8,33.2,170.2-30.2,282.2,25.3
		c79.6,39.5,120.2,125.9,101.6,213.3C368,313,304.7,373.4,230.1,385.5c-7.1,1.2-14.3,2-21.4,3c-8,0-16,0-24,0
		c-0.8-0.2-1.7-0.5-2.5-0.6c-8.7-1.3-17.6-2.1-26.2-3.9C81.7,369.1,20.1,305.3,8,230.6C6.8,223.4,6,216.1,5,208.8z M243.3,102.8
		c-12.6,12-27.5,18.3-43.7,22c-21.5,4.9-43,9.6-64.5,14.4c-47.7,10.7-82.3,38.1-103.4,82.2c-1.1,2.3-1.4,5.3-0.9,7.8
		c5.5,28.2,17.4,53.4,35.7,75.5c0.9,1.1,1.9,2.1,2.4,2.7c63.8-63.8,127.4-127.4,191.1-191.1C254.7,112.1,249.1,107.6,243.3,102.8z
		 M277.1,133.5c-63.8,63.8-127.4,127.4-191.1,191c-0.1-0.2,0,0.1,0.1,0.3c23.4,20.2,50.3,33,80.7,38.4c1.2,0.2,2.7-0.2,3.9-0.7
		c40.6-18.7,68-49.3,80.4-92.2c6.8-23.8,11.3-48.2,16.7-72.4c3.4-15.5,8.4-30.2,18.6-42.7c1.3-1.6,2.6-3.2,4.1-5
		C285.8,144.3,281.3,138.7,277.1,133.5z M212.6,365.1c0.9-0.1,2.6-0.3,4.3-0.5c45.4-5.8,82.5-26.5,111.5-61.9c0.9-1.1,1.4-2.6,1.6-4
		c4.1-37.3-1.4-73.3-16.3-107.7c-3-7-6.6-13.8-10.3-21.2c-6.7,8.6-10.3,17.7-12.5,27.3c-4.6,20.1-9.4,40.3-13.5,60.5
		c-6,29.6-17.3,56.7-37.3,79.6C231.7,347.2,221.8,356,212.6,365.1z M28.2,182.6c1.2-1.4,1.8-2.1,2.4-2.9
		c13.9-18.1,30.9-32.7,50.7-44.1c19.2-11,40.1-16.6,61.5-21.1c19.6-4.2,39.1-8.7,58.6-13.4c7.9-1.9,15.2-5.4,21.7-10.7
		c-0.6-0.5-1-0.8-1.4-1.1c-39.5-21.8-81.6-30.5-126.4-25.9c-1.8,0.2-3.9,1-5.3,2.2c-26.7,21.8-45.2,49.2-55.3,82.2
		C31.4,158.8,29.3,170.1,28.2,182.6z M321.4,156.5c18.6,32.1,28.9,66.2,31.8,103.5c0.7-1.4,1.1-1.9,1.3-2.4
		c10.4-27.7,13.8-56.2,9.4-85.6c-2.1-13.7-2.3-13.8-16-16.8C339.2,153.3,330.4,153.2,321.4,156.5z M134.2,39.1
		c0.1,0.4,0.2,0.8,0.3,1.2C171,43.1,205.1,53.6,236.9,72c0.4-1,0.8-1.6,1-2.3c3.6-12.6,1.4-24.7-3.6-36.4c-0.4-0.9-2-1.7-3.2-1.9
		c-23.6-5-47.3-4.9-70.8,0.4C151.5,33.7,142.9,36.6,134.2,39.1z M260.7,40.3c-0.2,0.6-0.3,0.8-0.3,1c2.9,14.3,2.3,28.2-3.5,41.8
		c-0.3,0.7,0.2,2.2,0.9,2.7c6.2,5.1,12.4,10,18.1,14.6c10.5-10.4,20.9-20.8,31.6-31.3C293.6,57,278,47.3,260.7,40.3z M292.8,117.2
		c4.6,5.8,9.5,11.6,14.1,17.7c1.5,2,2.7,2.2,4.9,1.2c8.7-3.8,17.9-5.1,27.4-4.6c4.6,0.3,9.1,0.9,14.1,1.4
		c-7.1-17.6-16.8-33.3-29-47.1C313.6,96.6,303.2,106.9,292.8,117.2z"/>
</g>
</svg>
