<?xml version="1.0" encoding="utf-8"?>
<!-- Generator: Adobe Illustrator 27.3.1, SVG Export Plug-In . SVG Version: 6.00 Build 0)  -->
<svg version="1.1" xmlns="http://www.w3.org/2000/svg" xmlns:xlink="http://www.w3.org/1999/xlink" x="0px" y="0px"
	 viewBox="0 0 1200 1000" style="enable-background:new 0 0 1200 1000;" xml:space="preserve">
<style type="text/css">
	.st0{fill:#F6D3C4;}
	.st1{opacity:0.5;}
	.st2{fill:#F7F7F7;}
	.st3{fill:#AA6755;}
	.st4{fill:#4B505B;}
	.st5{fill:#130043;}
	.st6{fill:#FFFFFF;}
	.st7{fill:#EAC1A4;}
	.st8{fill:#262A33;}
	.st9{fill:#DD4E12;}
	.st10{fill:#E6B02A;}
</style>
<g id="Background">
	<rect x="0" y="0" class="st0" width="1200" height="1000"/>
</g>
<g id="Shadow">
	<g class="st1">
		<path class="st2" d="M570.9,682.2c-26,0.1-52,0.7-77.9,3.5c-9.8,1.1-19.3,3.4-29.1,4.3c-19.6,1.9-38.8,5.3-58.4,7
			c-15.8,1.3-31.7,2.1-47.5,3.7c-14.8,1.5-31.2,1.2-45.8-1.4c-10.9-1.9-21.8-2.9-32.5-6c-11.9-3.4-24.9-5.8-37.4-5.7
			c-17.8,0.1-35,0.1-52,6.1c-6,2.1-13.3,5.5-17.8,9.9c-10.4,10.1-11.8,35.2-1.4,45.6c17.4,17.6,54.6,24.5,79.1,24.8
			c26.8,0.4,52.8-1.6,79.6-2.7c24.9-1.1,49.8-2.5,74.7-2.5c51,0.1,102,0,152.9-3.3c47.8-3.1,95.7-2,143.7-2
			c49.1,0,97.9,0.4,146.7,6.7c21.3,2.8,42.9,3.7,64.3,5.7c19.1,1.7,37.5,0,56.6-1.6c16-1.3,31.9-5.3,46.4-12
			c11.5-5.3,32-21.9,35.5-34.6c9.9-35.6-139.4-34.8-162.3-34.7c-25.6,0.1-51.5,0.9-77.1,0c-10.8-0.4-21.4-2.4-31.9-4.7
			c-10.5-2.2-21-1.7-31.7-2.6c-44.3-3.9-88.7-3.3-133.2-3.3C599.9,682.3,585.4,682.2,570.9,682.2z"/>
	</g>
</g>
<g id="Object">
	<g>
		<g>
			<g id="XMLID_00000166663368028163826640000014298166797267407795_">
				<path class="st3" d="M402.2,333.4l5.1-4.3l6.6,2.1l3.8,5.5l-1.7,4.7l-5.3,3.1l2,0.5l-0.4,1.6l-8.4,3.8c-2-2.1-8.8-3.7-9.9-4.8
					l5.6-4.8L402.2,333.4z"/>
			</g>
			<g id="XMLID_00000084498615672931327820000010808739977826872456_">
				<polygon class="st4" points="237.6,717.8 237.4,719.7 236.8,726.1 249.4,733.8 256.7,728.1 250.7,721.1 250.1,720.8 
					249.8,721.5 				"/>
			</g>
			<path class="st5" d="M290.2,581.4c-14.3,0.9-27.6,1.3-38,1.5l0.4,48.9l-15.6,85.9l0.7,0.2l12.2,3.7l0.3-0.7l41-101.3l1.4-20.6
				L290.2,581.4z"/>
			<g id="XMLID_00000129198345930822668770000015372326628180767921_">
				<path class="st5" d="M293.3,588.3l-0.7,10.6l3.7,26.8l4.2,96.9l0.1,0l0.1-1.4l12.5,0.4l19.7-102.9l1.1-42
					c-13.5,2.2-27.7,3.6-41.1,4.5L293.3,588.3z"/>
			</g>
			<polygon class="st4" points="313.9,721.6 313,721.6 300.5,721.2 300.5,722.6 300.3,727.6 313.4,734.3 320.3,728.2 			"/>
			<g>
				<path class="st3" d="M270,369.9c-0.4-1.1-0.8-2.1-1.2-3.2c0,0,0.1,0,0.1-0.1c5.5-4.2,8.1-11.5,7.8-18.4c-0.2-4.5-1.5-8.9-3.3-13
					c-1.4-2.4-3.1-4.6-5-6.4c-3.6-3.4-8.4-6.1-13.1-5.9c-1.9,0.1-1.1,1.6-3.4,0.4c-0.3-0.2-0.7-0.5-1-0.9c-0.3,0.4-0.6,0.6-0.6,0.7
					c-2.2,2.3-4.7,3.4-7.3,5.1c-4,2.5-6.2,7.9-5.3,13c0.4,2.1,1.3,4.3,0.8,6.3c-0.4,1.8-1.9,3-2.8,4.5c-0.5,0.9-0.9,1.9-1,3
					c4.4,8,12.8,14.5,21.5,15.3c0,0,0,0.1,0,0.1c0.1,0.5,0.2,1,0.4,1.5c0.6,2.2,2.1,4.6,4.4,4.7c1.1,0.1,2.1-0.3,3.1-0.7
					c2-0.8,4-1.6,5.9-2.4c0.4-0.2,0.9-0.4,1-0.8c0.1-0.4,0-0.8-0.1-1.1C270.5,371.1,270.2,370.5,270,369.9z"/>
			</g>
			<g>
				<path class="st5" d="M312.6,313.9c-4.7-0.3-8.8,2.5-12.6,5.1c-0.7-4.6-5.1-7.8-9.4-9c-4.2-1.2-8.7-1.2-12.9-2.9
					c-5-2-9.9-6.3-14.9-4.9c-4.5,1.3-7.3,6.7-10,11.5c-0.1-0.1-0.1-0.2-0.2-0.2c-2.1-2.2-4.5-4.4-7.2-5.5c-8.9-3.7-7.9,7.4-14.7,6.8
					c-1.7-0.1-3-1.4-4.6-2.1c-2.9-1.3-6.2-0.3-8.9,1.3c-2.6,1.6-5,3.8-7.8,5c-2.5,1.1-5.4,1.3-7.7,2.7c-3.5,2.1-2.8,5.9-3.4,9.4
					c-0.7,3.9-1.8,9.1-3.8,12.3c-1.5,2.3-3.8,3.8-5.8,5.7c-2,1.9-3.6,4.5-3.2,7.4c0.4,2.7,2.6,5,3.2,7.6c0.9,4,0.4,6.2,2.2,10.2
					c0.9,2.1,2,4.2,3.8,5.5c2.4,1.7,5.4,1.2,8,0.4c2.6-0.8,5.3-1.9,8-1.4c6,1.2,5.6,7.1,7.8,11.7c1.4,3.1,4,5.4,6.9,6.8
					c3.8,1.8,8.2,1.9,11.7,0c5.3-2.9,7.6-9.8,6.6-16.1c-0.4-2.3-1.4-4.4-2.1-6.6c-0.3-0.8-0.5-1.7-0.6-2.5c-0.5-3,0.7-7.5-2.4-9.6
					c-0.8-0.5-1.7-0.7-2.4-1.3c-0.6-0.5-0.9-1.2-1.2-1.9c-0.5-1.4-0.7-3-0.5-4.4c0.2-1.1,0.5-2.1,1-3c0.9-1.5,2.3-2.7,2.8-4.5
					c0.5-2-0.4-4.2-0.8-6.3c-1-5.1,1.2-10.5,5.3-13c2.7-1.7,5.1-2.8,7.3-5.1c0.1-0.1,0.3-0.3,0.6-0.7c0.4,0.4,0.7,0.7,1,0.9
					c2.3,1.2,1.5-0.3,3.4-0.4c4.7-0.2,9.5,2.5,13.1,5.9c2,1.9,3.7,4,5,6.4c2.5,4.2,3.9,9.1,4.1,13.9c0.2,6.9-3.4,10-0.1,16.9
					c0.7,1.5,1.6,3,2.7,4.4c2.8,3.7,6.7,6.6,10.9,8c0.5,0,1,0,1.4-0.1c2.4-0.2,4.7-0.9,6.8-2c2.1-1.1,4.1-2.5,5.7-4.3
					c2.5-2.7,4.3-6,5-9.7c0.4-2,0.6-4.3,1.9-5.7c1.1-1.2,2.7-1.6,3.8-2.8c4.6-4.8-4.2-13.5-2.2-20.1c1.2-4.2,6.4-5.8,7.5-10
					C322.2,319.1,317.3,314.2,312.6,313.9z"/>
			</g>
			<g>
				<g>
					<path class="st6" d="M410.8,347.8c-1.5-0.3-17.4-4.8-17.4-4.8c0.9,0.1-38.4,29-42.1,31.2c-11.4,6.9-33-1.5-46.4-2.1
						c-1.6,1.8-3.6,3.2-5.7,4.3c-2.1,1.1-4.4,1.8-6.8,2c-0.5,0-1,0.1-1.4,0.1c-4.3-1.3-8.1-4.2-10.9-8c-1.6-0.4-2.9-0.7-3.8-0.9
						l-6.2,0.3c0.2,0.6,0.5,1.2,0.7,1.8c0.1,0.4,0.3,0.8,0.1,1.1c-0.2,0.4-0.6,0.6-1,0.8c-2,0.8-4,1.6-5.9,2.4c-1,0.4-2,0.8-3.1,0.7
						c-2.3-0.2-3.8-2.5-4.4-4.7c-0.1-0.5-0.3-1-0.4-1.5l-11.7,0.5l-2.7,3.8c0.7,2.2,1.7,4.3,2.1,6.6c1.1,6.3-1.3,13.1-6.6,16.1
						c-3.5,1.9-7.9,1.8-11.7,0L222.9,535l11.5,51.9c0,0,8.3,0.2,21.1,0.1c9.9-0.1,22.4-0.5,35.9-1.4c0.8-0.1,1.6-0.1,2.3-0.2
						c12.7-0.9,26.1-2.2,38.9-4.3c4.9-0.8,9.8-1.7,14.4-2.7c0,0,12-32.6-5.2-114.5c-2.7-12.9-6.5-27.3-10.1-40.1
						c11.5-9.9,42.3-26.9,52.4-38.2c11-12.4,26.8-37.8,27.2-37.7C411.3,347.9,411.1,347.9,410.8,347.8z"/>
				</g>
			</g>
		</g>
		<g>
			<polygon class="st6" points="932.1,349.8 904.8,354.7 856.4,392.1 791.8,375.3 784.3,390.8 844.4,419.7 870.5,426.3 904.5,415.2 
							"/>
			<polygon class="st7" points="790,385.4 779.9,390.5 772.7,389.7 772.6,387.2 776.9,385.5 763.2,382.5 761.9,375.9 778.3,372 
				793.2,376.4 			"/>
			<g>
				<path class="st8" d="M901.8,706l-12.7,9l-4.2,6.9c0,0,4.8,2.1,7.4,2.7c2.7,0.5,23.4-2.7,23.4-2.7v-12.2L901.8,706z"/>
				<path class="st8" d="M1000.8,709.9l-4.7,8.6c0,0-2.9,10.8-0.4,10.1s16.8-3.2,17.3-5c0.6-1.8,6.7-9.1,7.5-10.5
					c0.7-1.3-2.3-10.1-2.3-10.1L1000.8,709.9z"/>
				<path class="st5" d="M913.7,508.6l41.1,122.8l46,78.5l17.8-5.2l-30.5-89.5c0,0-3.7-89.9-9.7-116.4L913.7,508.6z"/>
				<polygon class="st5" points="881.1,527.1 897,709.7 916.2,709.7 922,616.3 933,533.6 891.2,484.6 				"/>
				<path class="st6" d="M880.5,410.2c2-9.4,2.8-19.5,7.4-28.3c4.7-8.8,13.5-15.4,20.3-22.9c2.9-3.2,6-6.5,10.2-8
					c2.9-1,6.2-1.1,9.3-1.2c9.6-0.2,19.2-0.5,28.8-0.7c3.5-0.1,7.1-0.2,10.3,1.1c4.8,1.9,7.5,6.3,9.8,10.4c6,10.5,7.1,22.1,7.7,33.9
					c0,0.1,7.5,148.8,1.5,146c-7.4-3.5-15.9-5.3-24.2-6.6c-11.7-1.9-23.7-3.1-35.6-3.4l-21,1.4h-12.7c-7.6,0.7-7,3-14.8,2.6
					C872.6,534.2,878.2,421,880.5,410.2z"/>
				<g>
					<path class="st7" d="M935.6,354.7c4.8-0.2,9.5-0.4,14.3-0.6c0.3-3.8,0.2-7.6-0.1-11.4c4-1.2,8.7-3,9.6-7.1
						c0.3-1.3,0.1-2.6,0-3.9c-0.6-5.4-1.3-10.8-1.9-16.2c-0.2-1.9-0.5-3.8-1.4-5.4c-1.6-2.9-5-4.3-8.2-5c-8.2-1.9-17.4-0.6-24.1,4.5
						c-1.8,1.4-3.4,3-4.3,5.1c-1.3,3.2-0.7,6.8,0,10.2c0.6,3.1,1.3,6.3,1.9,9.4c0.7,3.6,1.9,7.7,5.2,9.2c1.8,0.8,3.9,0.7,5.5,1.9
						C934.9,347.2,934.2,351.5,935.6,354.7z"/>
					<path class="st5" d="M909.2,285.8c1.1-0.2,2.1-0.4,3.2-0.9c3.4-1.5,5.9-4.5,9.5-5.9c7.4-2.8,16.7-2.4,24,0.6
						c7,2.9,16.5,4.1,22.7,8c2.6,1.6,4.6,4.1,6.1,6.8c5.3,9.3,4.6,21.6-1.6,30.2c-1.4,1.9-3,3.7-4.8,5.4c-3.6,3.4-7.8,7.7-12.5,8.8
						c0.1-4.1,4.6-16.9,1.6-20.5c-3.9-4.7-11.7-4.6-17.3-4.1c-6.6,0.6-12.1-1.5-18.7-1.2c-3.4,0.2-7.2,0.8-9.7-1.3
						c-3-2.5-9.3-10.5-10.8-13.9c-1.3-3.1-0.4-6.8,1.8-9.2C904.9,286.5,907,286.2,909.2,285.8z"/>
				</g>
			</g>
			<g>
				<path class="st9" d="M923.6,451.7l-12.1,14.9l-6.1-17.9c0-1.5,0.3-2.9,0.8-4.3c2.5-6.1,29-82.5,29-82.5s1.1-4,1.6-7.4l8.5-0.5
					l-1.4,8.7l-4,3.4L923.6,451.7z"/>
			</g>
		</g>
		<g>
			<path class="st9" d="M640,286.9c-6.7-11.4-18.9-10-28.8-3.9c-3.9,2.4-8.6,0.6-10.3-3.1v-45.4h-0.6l-0.1,0
				c-86,2.5-160.9,49-203.3,117.6l33,19c1.1-6.1,3.6-11.3,7.2-15.1c4.5-4.7,10.7-7.3,17.9-7.3c7.3-0.1,14.5,3,19.8,8.4
				c5.3,5.4,8.2,12.6,8,19.9c-0.2,9.1-5,14.9-10,18.9l31.7,18.3c20.7-31.6,55.6-53.1,95.7-55.5l0.1,0h0.6V314
				c1.6-3.7,6.2-5.5,10.1-3.3c7,4,13.8,7.4,21.6,3.2C641.9,308.8,645.4,296.1,640,286.9z"/>
			<path class="st5" d="M455,356.3c-13.3,0.1-18.1,11.4-17.7,23c0.2,4.5-3.8,7.8-7.9,7.3l-39.3-22.7l-0.3,0.5l0,0.1
				c-40.8,75.7-38.1,163.9,0.2,234.9l33-19c-4.7-4-8-8.7-9.5-13.8c-1.8-6.3-0.9-12.9,2.6-19.1c3.6-6.4,9.9-11.1,17.2-13
				c7.3-1.9,15-0.8,21.3,3c7.7,4.7,10.4,11.8,11.3,18.1l31.7-18.3c-17-33.8-18.2-74.7-0.2-110.6l0.1,0l0.3-0.5L459,403.8
				c-2.4-3.2-1.6-8.1,2.2-10.4c6.9-4,13.3-8.2,13.6-17.1C475,365.6,465.8,356.3,455,356.3z"/>
			<path class="st10" d="M422.7,551.3c-6.5,11.5,0.8,21.4,11.1,26.9c4,2.1,4.8,7.2,2.4,10.5l-39.3,22.7l0.3,0.5l0,0
				c45.2,73.2,122.9,114.9,203.5,117.2l0-38.1c-5.8,2.1-11.5,2.5-16.7,1.3c-6.4-1.6-11.6-5.6-15.3-11.8c-3.7-6.3-4.7-14.1-2.7-21.4
				c2-7.3,6.8-13.4,13.2-16.9c8-4.3,15.4-3.1,21.4-0.7l0-36.6c-37.8-2.2-73.8-21.6-95.9-55.1l0-0.1l-0.3-0.5l-38.8,22.4
				c-4,0.4-7.9-2.6-7.9-7.1c0-8-0.5-15.7-8-20.3C440.7,538.6,428,541.9,422.7,551.3z"/>
			<path class="st9" d="M575.4,676.8c6.7,11.4,18.9,10,28.8,3.9c3.9-2.4,8.6-0.6,10.3,3.1v45.4h0.6l0.1,0
				c86-2.5,160.9-49,203.3-117.6l-33-19c-1.1,6.1-3.6,11.3-7.2,15.1c-4.5,4.7-10.7,7.3-17.9,7.3c-7.3,0.1-14.5-3-19.8-8.4
				c-5.3-5.4-8.2-12.6-8-19.9c0.2-9.1,5-14.9,10-18.9l-31.7-18.3c-20.7,31.6-55.6,53.1-95.7,55.5l-0.1,0h-0.6v44.8
				c-1.6,3.7-6.2,5.5-10.1,3.3c-7-4-13.8-7.4-21.6-3.2C573.4,654.8,569.9,667.5,575.4,676.8z"/>
			<path class="st5" d="M760.4,607.3c13.3-0.1,18.1-11.4,17.7-23c-0.2-4.5,3.8-7.8,7.9-7.3l39.3,22.7l0.3-0.5l0-0.1
				c40.8-75.7,38.1-163.9-0.2-234.9l-33,19c4.7,4,8,8.7,9.5,13.8c1.8,6.3,0.9,12.9-2.6,19.1c-3.6,6.4-9.9,11.1-17.2,13
				c-7.3,1.9-15,0.8-21.3-3c-7.7-4.7-10.4-11.8-11.3-18.1l-31.7,18.3c17,33.8,18.2,74.7,0.2,110.6l-0.1,0l-0.3,0.5l38.8,22.4
				c2.4,3.2,1.6,8.1-2.2,10.4c-6.9,4-13.3,8.2-13.6,17.1C740.4,598,749.6,607.4,760.4,607.3z"/>
			<path class="st10" d="M792.7,412.3c6.5-11.5-0.8-21.4-11.1-26.9c-4-2.1-4.8-7.2-2.4-10.5l39.3-22.7l-0.3-0.5l0,0
				c-45.2-73.2-122.9-114.9-203.5-117.2v38.1c5.8-2.1,11.5-2.5,16.7-1.3c6.4,1.6,11.6,5.6,15.3,11.8c3.7,6.3,4.7,14.1,2.7,21.4
				c-2,7.3-6.8,13.4-13.2,16.9c-8,4.3-15.4,3.1-21.4,0.7l0,36.6c37.8,2.2,73.8,21.6,95.9,55.1l0,0.1l0.3,0.5l38.8-22.4
				c4-0.4,7.9,2.6,7.9,7.1c0,8,0.5,15.7,8,20.3C774.6,425,787.4,421.7,792.7,412.3z"/>
		</g>
		<g>
			<polygon class="st6" points="941.4,384.5 943.1,437.6 867.4,454 870.8,471.1 954.5,465.9 970,451.5 980.4,400.5 			"/>
			<polygon class="st7" points="870.5,469.6 859.3,476 847,470.1 859.2,450.6 867.4,454 			"/>
		</g>
		<g>
			<polygon class="st3" points="352.7,461.3 352.4,468.6 365.2,473.2 372.5,467.6 372.5,459.2 365.4,458.8 365.2,457 362.9,455.5 
							"/>
			<path class="st6" d="M315.4,445.4l39.3,7.8c0,0-2.3,24-2.2,22c0-2-51.6-4.3-51.6-4.3L315.4,445.4z"/>
		</g>
	</g>
</g>
</svg>
