<?xml version="1.0" encoding="utf-8"?>
<!-- Generator: Adobe Illustrator 27.3.1, SVG Export Plug-In . SVG Version: 6.00 Build 0)  -->
<svg version="1.1" id="Calque_1" xmlns="http://www.w3.org/2000/svg" xmlns:xlink="http://www.w3.org/1999/xlink" x="0px" y="0px"
	 viewBox="0 0 306.1 239.7" style="enable-background:new 0 0 306.1 239.7;" xml:space="preserve">
<style type="text/css">
	.st0{fill:#0F0042;}
</style>
<g>
	<path class="st0" d="M32.9,196.4c-15-3.5-25.9-12.3-30.8-27.5c-1.3-4.1-1.9-8.6-1.9-12.8C0,117.8,0,79.5,0.1,41.2
		C0.1,17,17.1,0,41.4,0c74.4,0,148.7,0,223.1,0C289,0,306,16.9,306,41.4c0.1,37.9,0,75.9,0,113.8c0,25.3-16.7,42-42,42
		c-48.3,0.1-96.6,0-144.9,0.1c-2.4,0-5.2,0.9-7.2,2.2c-17.6,12.1-35,24.3-52.5,36.5c-5.7,4-11.7,4.9-17.9,1.5
		c-6.2-3.3-8.9-8.7-8.8-15.7C33,213.6,32.9,205.2,32.9,196.4z M49.7,222.8c0.8-0.5,1.9-1.2,3-1.9c17.6-12.1,35.1-24.1,52.6-36.3
		c3.3-2.3,6.7-3.4,10.8-3.4c49.3,0.1,98.6,0.1,147.8,0.1c16.6,0,26-9.4,26-26c0-37.8,0-75.6,0-113.4c0-16.5-9.5-26-26.1-26
		c-73.6,0-147.2,0-220.8,0c-16.5,0-26.1,9.5-26.1,25.9c0,37.8,0,75.6,0,113.4c0,16,8.9,25.3,24.9,26c5.5,0.2,8.5,3.4,8.4,8.8
		c-0.1,4.7-0.5,9.5-0.6,14.2C49.6,210.4,49.7,216.6,49.7,222.8z"/>
</g>
<circle class="st0" cx="77.8" cy="98.5" r="12.5"/>
<circle class="st0" cx="128.3" cy="98.5" r="12.5"/>
<circle class="st0" cx="178.9" cy="98.5" r="12.5"/>
<circle class="st0" cx="229.5" cy="98.5" r="12.5"/>
</svg>
