<?xml version="1.0" encoding="utf-8"?>
<!-- Generator: Adobe Illustrator 27.3.1, SVG Export Plug-In . SVG Version: 6.00 Build 0)  -->
<svg version="1.1" id="Calque_1" xmlns="http://www.w3.org/2000/svg" xmlns:xlink="http://www.w3.org/1999/xlink" x="0px" y="0px"
	 viewBox="0 0 219.3 315.5" style="enable-background:new 0 0 219.3 315.5;" xml:space="preserve">
<style type="text/css">
	.st0{fill:none;}
	.st1{fill:#0F0042;}
</style>
<g>
	<path class="st0" d="M123.4,228.9c-1.9-6-7.5-10-13.9-10c0,0-0.1,0-0.1,0c-6.2,0.1-11.8,4.2-13.6,10c-2,6.4,0.3,12.7,5.9,16.4
		c4.5,3,6,6.8,4.7,12c-0.9,3.7-1.7,7.4-2.4,11.3c-0.2,0.9-0.4,1.8-0.5,2.8h12.4c-0.2-0.9-0.4-1.9-0.6-2.8c-0.8-3.9-1.5-7.7-2.4-11.4
		c-1.3-5.2,0.2-9,4.8-11.9C123.2,241.7,125.5,235.2,123.4,228.9z"/>
	<path class="st0" d="M40.8,81c0,15.6,0,31.4,0,46.8c0,7,0,14,0,21v1.6h16.8V148c0-6.8,0-13.6,0-20.5c0-15-0.1-30.5,0.1-45.8
		c0.1-15.8,7.1-30.4,19-40.2c12-9.8,27.8-13.7,43.4-10.7c23.9,4.6,41.4,26.3,41.5,51.4c0.1,15.2,0.1,30.7,0,45.7
		c0,6.7,0,13.5,0,20.2v2.3h16.9c0-0.2,0-0.4,0-0.6l0-15.5c0-17.3,0-35.1-0.1-52.6c0-3.6-0.4-7.5-1.1-12
		c-5.9-35.2-37.7-59.5-74.1-56.6C68.9,15.8,40.9,46.3,40.8,81z"/>
	<path class="st0" d="M131.2,53.7c-8.2-6.3-19-8.6-29.5-6.3C85.5,51.1,74.5,65.4,74.4,83c-0.1,16.5-0.1,33.2,0,49.4
		c0,5.6,0,11.2,0,16.8c0,0.4,0,0.8,0.1,1.2h70.3c0-6.8,0.1-13.8,0.1-20.5c0.1-16.3,0.3-33.1-0.3-49.6
		C144.2,69.6,139.4,60.1,131.2,53.7z"/>
	<path class="st0" d="M206.5,294.1c0-39.3,0-78.6,0-117.9c0-6.9-1.9-8.8-8.7-8.8c-58.8,0-117.5,0-176.3,0c-6.8,0-8.7,1.9-8.7,8.9
		c0,39.2,0,78.4,0,117.6c0,7.3,1.7,9,8.9,9c21.5,0,43,0,64.5,0l23.5,0l23,0c21.8,0,43.5,0,65.3,0
		C204.7,302.7,206.5,300.9,206.5,294.1z M130.5,259.4c1.3,5.9,2.6,12,3.8,18c0.8,4.1-0.3,6.5-1.4,7.9c-1.1,1.4-3.3,3-7.4,3.1
		c-2.1,0-4.2,0.1-6.4,0.1c-1.6,0-3.2,0-4.8,0c-1.7,0-3.3,0-5,0h0c-1.5,0-3.1,0-4.6,0c-3.4,0-6.9,0-10.4,0c-3.5-0.1-6.2-1.1-7.8-3.1
		c-1.6-2-2.1-4.8-1.4-8.3c1-5.3,2.2-11,3.8-18c0.3-1.5,0.2-2.2-1-3.4c-6.1-5.9-9.5-13.8-9.6-22.2c-0.1-8.4,3.2-16.3,9.2-22.3
		c5.9-5.9,13.7-9.1,22.1-9.1c0,0,0,0,0,0c8.4,0,16.2,3.2,22.1,9.1c5.9,5.9,9.2,13.8,9.2,22.1c0,8.3-3.3,16.2-9.3,22.1
		C130.3,256.7,130.1,257.6,130.5,259.4z"/>
	<path class="st1" d="M219.2,297c0.1-41.6,0.1-83.3,0-123.9c0-10.1-8.2-18.3-18.6-18.5c-1.5,0-3.1,0-4.8,0c-0.8,0-1.6,0-2.5,0h-2
		l0-4c0-1.2,0-2.2,0-3.3c0-7.6,0-15.2,0.1-22.7c0.2-16.4,0.3-33.3-0.8-49.8c-1.6-23.9-13.8-45.6-33.5-59.6
		C137,0.9,111.9-3.6,88.2,2.9c-35.8,9.9-60,41.7-60.2,79.2c-0.1,15-0.1,30.3-0.1,45.1c0,6.8,0,13.6,0,20.4v6.9l-3.9,0l-3.1,0
		C7.8,154.6,0,162.3,0,175.3c0,40.2,0,80.3,0,119.4c0,1.9,0,4,0.5,5.9c2.2,9.4,9.6,14.9,20.4,14.9c49.7,0,99.3,0,149,0l28.4,0
		c0.9,0,1.9,0,2.9-0.1C211.3,314.9,219.2,306.8,219.2,297z M36.8,80.9c0.1-36.7,29.8-69,66.1-71.9c18.5-1.5,36.7,3.8,51.2,14.9
		c14.5,11.1,24.2,27.1,27.2,45c0.8,4.7,1.2,8.8,1.2,12.6c0.1,17.6,0.1,35.4,0.1,52.7l0,15.5c0,0.5,0,1-0.1,1.7c0,0.3,0,0.7-0.1,1
		l-0.1,1.9h-24.6v-6.3c0-6.7,0-13.5,0-20.2c0-15,0-30.4,0-45.7C157.5,59,141.4,39,119.4,34.7c-14.4-2.8-29,0.8-40.1,9.9
		c-11,9-17.4,22.6-17.6,37.1c-0.1,15.3-0.1,30.8-0.1,45.8c0,6.8,0,13.6,0,20.5v6.3H36.8v-5.6c0-7,0-14,0-21
		C36.8,112.4,36.7,96.5,36.8,80.9z M148.9,130c-0.1,7-0.1,14.3-0.1,21.4c0,0.6-0.2,1-0.3,1.3c-0.1,0.1-0.1,0.3-0.2,0.4l-0.5,1.3h-77
		l-0.1-1.8c0-0.3-0.1-0.7-0.1-1c-0.1-0.8-0.2-1.6-0.2-2.4c0-5.6,0-11.2,0-16.8c0-16.2,0-33,0-49.4c0.1-19.5,12.3-35.4,30.4-39.4
		c11.7-2.6,23.6-0.1,32.8,7c9.1,7,14.6,17.8,15,29.7C149.2,96.8,149.1,113.7,148.9,130z M198,306.7c-14.1,0-28.2,0-42.3,0
		c-7.7,0-15.3,0-22.9,0l-23,0l-23.5,0c-21.5,0-43,0-64.5,0c-9.5,0-12.9-3.4-12.9-13c0-39.2,0-78.4,0-117.6c0-9.1,3.7-12.9,12.7-12.9
		c58.8,0,117.5,0,176.3,0c9,0,12.7,3.7,12.7,12.8c0,39.3,0,78.6,0,117.9C210.5,303.2,207,306.7,198,306.7z"/>
	<path class="st1" d="M126.6,260.3c-0.7-3.1,0-5.5,2.3-7.7c5.2-5.1,8.1-12,8.1-19.2c0-7.3-2.8-14.1-8-19.3c-5.1-5.1-12-7.9-19.3-7.9
		c0,0,0,0,0,0c-7.3,0-14.2,2.8-19.3,8c-5.2,5.2-8.1,12.1-8,19.4c0.1,7.3,3,14.2,8.4,19.3c2.1,2,2.7,4.2,2.1,7.1
		c-1.5,6.9-2.7,12.6-3.7,17.9c-0.4,2.3-0.3,4,0.6,5c0.8,1,2.4,1.6,4.7,1.6c3.4,0.1,6.9,0,10.3,0c1.5,0,3.1,0,4.6,0
		c0.1,0,0.1,0,0.2,0c1.6,0,3.2,0,4.8,0c3.6,0,7.4,0,11.1,0c1.4,0,3.3-0.3,4.4-1.6c1-1.3,0.9-3.2,0.6-4.6
		C129.1,272.2,127.9,266.2,126.6,260.3z M119.9,248.6c-3.1,2-4,4.1-3.1,7.6c0.9,3.8,1.7,7.6,2.5,11.5c0.3,1.7,0.7,3.4,1,5.2l0.5,2.4
		H98.6l0.5-2.4c0.4-1.7,0.7-3.4,1-5.1c0.8-4,1.5-7.7,2.5-11.5c0.9-3.5,0.1-5.6-3-7.7c-7.1-4.6-10-12.9-7.5-20.9
		c2.3-7.5,9.5-12.8,17.4-12.8c8.1,0,15.3,5,17.8,12.7C129.9,235.8,127,244,119.9,248.6z"/>
</g>
</svg>
