<?xml version="1.0" encoding="utf-8"?>
<!-- Generator: Adobe Illustrator 27.3.1, SVG Export Plug-In . SVG Version: 6.00 Build 0)  -->
<svg version="1.1" id="Calque_1" xmlns="http://www.w3.org/2000/svg" xmlns:xlink="http://www.w3.org/1999/xlink" x="0px" y="0px"
	 viewBox="0 0 314.4 321.2" style="enable-background:new 0 0 314.4 321.2;" xml:space="preserve">
<style type="text/css">
	.st0{fill:#0F0042;}
</style>
<g>
	<path class="st0" d="M15.4,160.5c0,44.8,0,89.6,0,134.4c0,8.8,2,10.8,10.7,10.8c58.4,0,116.8,0,175.1,0c8.6,0,10.7-2.2,10.7-10.9
		c0-27.8,0-55.7,0-83.5c0-1.5,0-3,0.2-4.5c0.6-4,3.9-6.9,7.7-6.7c3.8,0.1,7,3.1,7.4,7.1c0.1,1.1,0.1,2.2,0.1,3.4
		c0,28.5,0,56.9,0,85.4c0,15.7-9.5,25.2-25.1,25.2c-59,0-118,0-177,0C9.6,321.2,0,311.7,0,296.1C0,205.7,0,115.4,0,25
		C0,9.6,9.5,0,24.9,0c59.3,0,118.5,0,177.8,0c15.2,0,24.7,9.6,24.7,24.8c0,29,0,57.9,0,86.9c0,1.6-0.1,3.3-0.6,4.8
		c-1.2,3.4-3.9,5.1-7.5,4.9c-3.6-0.2-6-2.3-6.8-5.8c-0.3-1.6-0.3-3.2-0.3-4.8c0-28.2,0-56.4,0-84.6c0-8.4-2.3-10.7-10.6-10.7
		c-58.5,0-117,0-175.5,0c-8.2,0-10.5,2.3-10.5,10.4C15.4,70.7,15.4,115.6,15.4,160.5z"/>
	<path class="st0" d="M287.6,153.4c-1.4-1.5-2.2-2.4-3-3.2c-11.9-11.8-23.7-23.5-35.6-35.3c-2.3-2.3-3.8-5.2-2.4-8
		c1.1-2.2,3.5-4.7,5.7-5.1c2.3-0.4,5.7,0.8,7.6,2.5c7.3,6.6,14.1,13.7,21.2,20.6c9.9,9.8,19.9,19.6,29.8,29.4
		c4.9,4.8,4.9,8.5,0,13.4c-16.7,16.5-33.3,33-50.2,49.3c-1.8,1.8-4.6,3.1-7.1,3.4c-3.1,0.4-5.7-1.7-6.8-4.8
		c-1.2-3.1-0.4-5.9,1.9-8.2c5.8-5.7,11.5-11.4,17.3-17.1c6.2-6.1,12.4-12.3,18.6-18.4c0.9-0.8,1.7-1.7,3.2-3.3c-2.1,0-3.4,0-4.7,0
		c-41.9,0-83.8,0-125.7,0c-1.4,0-2.7,0-4.1-0.1c-4.3-0.3-7.2-3.3-7.3-7.5c0-4.2,2.8-7.3,7.1-7.6c1.4-0.1,2.7-0.1,4.1-0.1
		c41.9,0,83.8,0,125.7,0C284.1,153.4,285.4,153.4,287.6,153.4z"/>
</g>
</svg>
