<?xml version="1.0" encoding="utf-8"?>
<!-- Generator: Adobe Illustrator 27.3.1, SVG Export Plug-In . SVG Version: 6.00 Build 0)  -->
<svg version="1.1" id="Calque_1" xmlns="http://www.w3.org/2000/svg" xmlns:xlink="http://www.w3.org/1999/xlink" x="0px" y="0px"
	 viewBox="0 0 411 99" style="enable-background:new 0 0 411 99;" xml:space="preserve">
<style type="text/css">
	.st0{fill:#202020;}
	.st1{fill:none;}
	.st2{fill:url(#SVGID_1_);}
	.st3{fill:#0F0042;}
	.st4{fill:#FF4D00;}
	.st5{fill:#F9B300;}
	.st6{fill:#FE3692;}
	.st7{fill:#FEB800;}
	.st8{fill:#020B59;}
	.st9{fill:#58E3FA;}
	.st10{fill:#80FBD3;}
	.st11{fill:#6DF0E7;}
	.st12{fill:#285FFF;}
	.st13{fill:#E52843;}
	.st14{fill:#DDDCE3;}
	.st15{fill:#222E3B;}
	.st16{fill:#FCEFE3;}
	.st17{fill:#FFD77A;}
	.st18{fill:#F3BDA3;}
	.st19{fill:#00A4BD;}
	.st20{fill:#1E1E1E;}
	.st21{fill:#535FFD;}
	.st22{fill:#EA6C35;}
	.st23{fill:#0FE8D6;}
	.st24{fill:#FAEE38;}
	.st25{fill:none;stroke:url(#SVGID_00000096035676970655591900000013728309999401530753_);stroke-width:10;stroke-miterlimit:10;}
	.st26{fill:#FFFFFF;}
	.st27{fill:none;stroke:#FEB800;stroke-width:6;stroke-linecap:round;stroke-miterlimit:10;}
	.st28{fill:none;stroke:#FF4D00;stroke-width:6;stroke-linecap:round;stroke-miterlimit:10;}
</style>
<g>
	<path class="st3" d="M41.5,78.1l10.9,8.2c-1.1,1.6-2.4,3.2-3.9,4.7c-5.6,5.6-12.3,8.4-20.2,8.4c-7.8,0-14.5-2.8-20-8.4
		s-8.4-12.3-8.4-20.1c0-7.9,2.8-14.5,8.4-20c5.6-5.6,12.2-8.4,20-8.4c7.9,0,14.6,2.8,20.2,8.4c1.5,1.5,2.8,3,3.9,4.7l-10.9,8.2
		c-0.7-1.2-1.5-2.3-2.5-3.3c-2.9-2.9-6.5-4.4-10.6-4.4c-4.1,0-7.6,1.5-10.5,4.4c-2.8,2.9-4.3,6.4-4.3,10.5c0,4.1,1.5,7.6,4.3,10.5
		c3,2.9,6.5,4.4,10.5,4.4c4.1,0,7.7-1.5,10.6-4.4C40.1,80.3,40.9,79.2,41.5,78.1z"/>
	<path class="st5" d="M65.6,91c-5.6-5.6-8.4-12.3-8.4-20.1c0-7.9,2.8-14.5,8.4-20c5.6-5.6,12.2-8.4,20-8.4c7.9,0,14.5,2.8,20.1,8.4
		c5.6,5.5,8.4,12.2,8.4,20c0,7.8-2.8,14.5-8.4,20.1s-12.2,8.4-20.1,8.4C77.9,99.3,71.2,96.5,65.6,91z M75.1,60.3
		c-2.8,2.9-4.3,6.4-4.3,10.5c0,4.1,1.5,7.6,4.3,10.5c3,2.9,6.5,4.4,10.5,4.4c4.1,0,7.6-1.5,10.5-4.4c2.9-3,4.4-6.5,4.4-10.5
		c0-4.1-1.5-7.6-4.4-10.5c-2.9-2.9-6.4-4.4-10.5-4.4C81.6,56,78.1,57.4,75.1,60.3z"/>
	<path class="st3" d="M144.6,59.8h9.8v13.6h-9.8v26h-13.4v-26h-9.8V59.8h9.8V35.7c0-12.5,3.6-21.9,10.9-28.2
		c5.6-4.8,11.8-7.2,18.7-7.2V7l0.1,6.7c-3.4,0-6.4,1.1-9.1,3.3c-4.7,3.7-7.1,9.9-7.1,18.7V59.8z"/>
	<path class="st5" d="M171.4,91c-5.6-5.6-8.4-12.3-8.4-20.1c0-7.9,2.8-14.5,8.4-20c5.6-5.6,12.2-8.4,20-8.4c7.9,0,14.5,2.8,20.1,8.4
		c5.6,5.5,8.4,12.2,8.4,20c0,7.8-2.8,14.5-8.4,20.1s-12.2,8.4-20.1,8.4C183.6,99.3,176.9,96.5,171.4,91z M180.9,60.3
		c-2.8,2.9-4.3,6.4-4.3,10.5c0,4.1,1.5,7.6,4.3,10.5c3,2.9,6.5,4.4,10.5,4.4c4.1,0,7.6-1.5,10.5-4.4c2.9-3,4.4-6.5,4.4-10.5
		c0-4.1-1.5-7.6-4.4-10.5c-2.9-2.9-6.4-4.4-10.5-4.4C187.3,56,183.8,57.4,180.9,60.3z"/>
	<path class="st3" d="M255.2,99.3c-7.8,0-14.4-2.8-19.8-8.2s-8.2-12.1-8.2-19.8V42.4h13.5v28.9c0,4,1.5,7.4,4.2,10.4
		c2.9,2.8,6.4,4.3,10.4,4.3s7.4-1.5,10.4-4.3c2.8-2.9,4.2-6.4,4.2-10.4V42.4h13.5v28.9c0,7.8-2.7,14.4-8.2,19.8
		c-5.5,5.5-12.1,8.2-19.8,8.2H255.2z"/>
	<path class="st3" d="M318.9,42.4c7.8,0,14.4,2.7,19.9,8.3c5.6,5.5,8.3,12.2,8.3,20v28.6h-13.4V70.7c0-4.1-1.5-7.6-4.4-10.5
		c-2.9-2.9-6.4-4.3-10.4-4.3c-4.1,0-7.6,1.4-10.5,4.3c-2.9,2.9-4.4,6.4-4.4,10.5v28.6h-13.4V70.7c0-7.8,2.8-14.5,8.3-20
		C304.5,45.1,311.1,42.4,318.9,42.4z"/>
	<path class="st3" d="M411.4,70.9c0,7.8-2.8,14.5-8.4,20.1c-5.5,5.6-12.2,8.4-20,8.4s-14.6-2.8-20.2-8.4s-8.4-12.3-8.4-20.1
		c0-7.9,2.8-14.6,8.4-20.1c5.6-5.6,12.3-8.4,20.2-8.4c5.6,0,10.6,1.4,15.1,4.2V0.2h13.4V70.9z M382.9,55.9c-4.1,0-7.6,1.5-10.6,4.4
		c-2.9,2.9-4.4,6.5-4.4,10.6c0,4.1,1.5,7.6,4.4,10.5c3,2.9,6.5,4.4,10.6,4.4c4.1,0,7.6-1.5,10.5-4.4c2.9-3,4.3-6.5,4.3-10.5
		c0-4.1-1.4-7.7-4.3-10.6C390.5,57.3,387,55.9,382.9,55.9z"/>
</g>
<rect x="121" y="59" class="st4" width="33.8" height="15"/>
</svg>
