<?xml version="1.0" encoding="utf-8"?>
<!-- Generator: Adobe Illustrator 27.3.1, SVG Export Plug-In . SVG Version: 6.00 Build 0)  -->
<svg version="1.1" id="Calque_1" xmlns="http://www.w3.org/2000/svg" xmlns:xlink="http://www.w3.org/1999/xlink" x="0px" y="0px"
	 viewBox="0 0 194.2 122.5" style="enable-background:new 0 0 194.2 122.5;" xml:space="preserve">
<style type="text/css">
	.st0{fill:#0F0341;}
</style>
<g>
	<path class="st0" d="M85.8,117.3c-3.1-2.5-5.8-5.3-8.3-8.1c-1.1,0.3-2.1,0.7-3.2,1c-3.4,0.9-6.9,1.5-10.4,1.6
		c-6.5,0.3-12.4-0.4-17.9-2.2c-7.3-2.3-13.8-6.2-19.4-11.4c-4.5-4.3-8.1-9.1-10.7-14.5c-3.8-7.8-5.5-16.2-5.1-24.8
		c0.2-4,0.8-7.6,1.8-11c4.7-16.2,15.1-27.6,30.9-33.9c4.5-1.8,9.4-2.9,14.4-3.1c3.8-0.2,8.7-0.2,13.7,1.1c0.1,0,0.3,0,0.4,0.1
		c0.6,0.1,1.5,0.1,2.4,0.6c0.3,0.2,0.8,0.3,1.3,0.4c0.6,0.1,1.3,0.3,2,0.6l0.6,0.2c2.2,0.8,4.4,1.7,6.6,2.8c4.2,2.1,8.2,5,12.1,8.9
		c8.3,8.3,13.2,18.3,14.6,30c0.4,3.4,0.4,7,0,11.1c-0.3,2.9-0.8,5.8-1.6,8.5c-1.1,4.2-2.9,8.3-5.3,12.3c2.4,2.6,5.2,4.9,8.2,6.8
		c0.2-0.4,0.5-0.7,0.7-1.1c4.9-8.1,7.9-17.1,8.7-26.6c0.5-5.9,0.2-11.7-1.1-17.5c-1.9-8.9-5.5-17-10.9-24.3
		c-2.9-3.9-6.2-7.3-9.8-10.3C90.1,5.8,78.3,1.1,65.6,0.2c-1.5-0.1-3-0.2-4.5-0.2c-6.8,0-13.3,1.1-19.4,3.2c-7.1,2.5-13.5,6-19,10.5
		C16.8,18.5,11.9,24.3,8,31c-4,6.8-6.5,14.4-7.5,22.5c-0.7,5.4-0.6,11.1,0.2,16.9C1.5,76.3,3.3,82.1,6,87.6
		c2.4,5.1,5.6,9.9,9.5,14.2c5.8,6.5,12.6,11.5,20.5,15.1c7,3.2,14.4,5,21.8,5.5c5.8,0.3,11.7-0.2,17.4-1.5
		C78.6,120.1,82.2,118.9,85.8,117.3z"/>
	<path class="st0" d="M188.5,87c2.9-6.2,4.7-12.7,5.4-19.2c0.4-3.4,0.4-7.1,0.1-11.3c-0.2-3-0.7-6.1-1.4-9.1
		c-2.7-11.2-8.2-21.1-16.3-29.4c-4.5-4.6-9.9-8.5-16.1-11.6c-6.5-3.3-13.3-5.3-20.4-6.1c-5.4-0.6-10.8-0.5-16.2,0.3
		c-5.3,0.8-10.5,2.3-15.3,4.5c3,2.5,5.8,5.3,8.3,8.1c3.5-1.1,6.7-1.9,10-2.3c3.1-0.4,6.4-0.4,10.1-0.2c2.1,0.1,4.3,0.5,6.4,1h0.1
		c0.5,0,1.4,0,2.2,0.5c0.5,0,1.5,0.1,2.5,0.7c0.3,0,0.6,0.1,1,0.2c3.6,1.1,7.1,2.8,10.8,5.1c3.5,2.2,6.8,4.8,9.7,7.8
		c5.5,5.7,9.6,12.7,12.1,20.9c1.4,4.5,2,9.3,2,14.2c0,3.4-0.3,6.8-1,10c-1,4.8-2.6,9.3-4.7,13.3c-3.8,7.3-9.3,13.5-16.3,18.3
		c-6.5,4.5-13.7,7.3-21.6,8.4c-6.5,0.9-12.8,0.6-18.7-0.9c-1.6-0.4-3.7-0.9-5.8-1.7c-5.4-2-10.4-4.9-14.7-8.5
		c-5.7-4.8-9.9-10.1-12.9-16.1c-5.6-11.1-6.9-23-3.9-35.3c1.1-4.7,3-9.2,5.7-13.6c-0.1-0.1-0.1-0.1-0.2-0.2
		c-0.7-0.8-1.4-1.5-2.1-2.2c-1.9-1.8-3.8-3.2-5.8-4.5c-0.1,0.1-0.1,0.2-0.2,0.3c-0.5,0.8-1,1.6-1.5,2.4c-4.6,8.1-7.2,16.9-7.9,26.2
		c-0.4,6.1,0.1,12.3,1.6,18.4c2.5,9.9,7.1,18.8,13.7,26.3c4.5,5.1,9.9,9.3,15.9,12.7c4.8,2.7,9.6,4.6,14.5,5.9c4,1,7.6,1.6,11,1.8
		c7.8,0.5,15.3-0.4,22.3-2.6c8.1-2.6,15.4-6.5,21.6-11.8C179.4,102.1,184.7,95.1,188.5,87z"/>
</g>
</svg>
