<?xml version="1.0" encoding="utf-8"?>
<!-- Generator: Adobe Illustrator 27.3.1, SVG Export Plug-In . SVG Version: 6.00 Build 0)  -->
<svg version="1.1" id="Calque_1" xmlns="http://www.w3.org/2000/svg" xmlns:xlink="http://www.w3.org/1999/xlink" x="0px" y="0px"
	 viewBox="0 0 323.3 371.2" style="enable-background:new 0 0 323.3 371.2;" xml:space="preserve">
<style type="text/css">
	.st0{fill:#0F0042;}
</style>
<g>
	<path class="st0" d="M77.9,371.2c-4.3-0.2-8-0.4-12.7-0.6c0-10,0.5-19.6-0.1-29.1c-2.8-43.7-14.3-84.6-39.9-120.9
		C7.1,194.9-1.1,166,0.1,134.6C2.6,70.3,50.1,15,113.3,2.7c77-15,151.2,35.1,165.8,112c0.7,3.4,1.5,6.9,1.4,10.4
		c-0.2,8,3,14.6,7,21.2c11.5,19.1,22.6,38.5,33.8,57.8c4.1,7.1,1.8,11.2-6.5,11.2c-10.7,0-21.5,0-32.2,0.1c-0.2,0-0.5,0.1-1.2,0.3
		c0,1.2,0,2.5,0,3.8c0,20,0,39.9,0,59.9c0,15.7-10,25.7-25.7,25.7c-9.2,0-18.4,0-28.1,0c0,22,0,43.7,0,65.7c-4.1,0-7.8,0-11.9,0
		c0-21.7,0-43.4,0-65.6c-8.2,0-16,0-23.9,0c0-4.1,0-7.8,0-12.1c1.2,0,2.6,0,3.9,0c19.7,0,39.4,0,59.1,0c10.3,0,14.6-4.3,14.6-14.5
		c0-22.3,0-44.7,0-67c0-6.6,1.8-8.4,8.5-8.4c9.4,0,18.9,0,28.8,0c-0.8-1.5-1.4-2.6-2-3.7c-11.2-19.2-22.4-38.3-33.5-57.5
		c-1.1-1.8-1.8-4.1-1.9-6.3c-2.6-60.4-44.8-109.8-104-121.7C93.8-0.4,23,50.1,13.4,122.4C9,155.7,16,186.2,35.1,213.7
		c22.1,31.9,35.3,67.2,39.7,105.6c1.9,15.8,2.1,31.8,3.1,47.7C78,368.3,77.9,369.5,77.9,371.2z"/>
	<path class="st0" d="M180.1,59.5c7.5,0,15,0,22.5,0c4.9,0,7.1,2.2,7.1,7.1c0,15.2,0,30.4,0,45.7c0,4.9-2.2,7.1-7.1,7.1
		c-15.2,0-30.4,0-45.7,0c-4.9,0-7.1-2.2-7.1-7.1c0-15.2,0-30.4,0-45.7c0-4.9,2.2-7.1,7.1-7.1C164.6,59.4,172.3,59.5,180.1,59.5z
		 M162,71.6c0,12,0,23.8,0,35.5c12,0,23.8,0,35.5,0c0-12,0-23.6,0-35.5C185.6,71.6,173.9,71.6,162,71.6z"/>
	<path class="st0" d="M95.7,191.2c-4.2,0-8.5-0.1-12.7,0c-2.9,0.1-5.1-1.1-6.5-3.5c-4.4-7.7-9-15.2-13.1-23.1c-1-1.8-0.9-5,0.1-6.9
		c4-7.7,8.6-15.2,12.9-22.7c1.4-2.5,3.5-3.7,6.4-3.7c8.7,0.1,17.5-0.2,26.2,0.2c2.1,0.1,4.9,1.7,6,3.4c4.7,7.5,9.2,15.1,13.2,23
		c1,1.8,0.9,5-0.1,6.9c-4,7.7-8.6,15.2-12.9,22.7c-1.5,2.6-3.8,3.8-6.8,3.7C104.2,191.2,100,191.2,95.7,191.2z M95.8,178.7
		c8.4,3.1,11.8-1.9,15.8-8.3c4.2-6.7,4-11.5,0.1-18.3c-3.9-6.8-8-9.2-15.9-9.2c-7.9,0-12,2.3-15.9,9.1c-3.9,6.8-4.2,11.6,0,18.3
		C84,176.7,87.4,181.9,95.8,178.7z"/>
	<path class="st0" d="M95.8,59.5c16.4,0,29.9,13.3,30,29.6c0.1,16.7-13.4,30.3-30.1,30.3c-16.3,0-29.7-13.4-29.8-29.8
		C65.8,73,79.2,59.5,95.8,59.5z M95.8,107.4c10,0,18.1-8.1,18-18.1c-0.1-9.8-8.1-17.8-17.9-17.8c-9.9,0-18,8.1-18,18.1
		C77.9,99.3,86,107.4,95.8,107.4z"/>
	<path class="st0" d="M179.6,191.2c-7.5,0-15,0-22.4,0c-6.4,0-9-4.1-6.1-9.9c7.5-15,15-30,22.5-45.1c1.3-2.7,3.1-4.6,6.2-4.5
		c2.9,0,4.7,1.8,6,4.4c7.5,15.2,15.2,30.3,22.7,45.4c2.8,5.6,0.2,9.7-6,9.7C194.8,191.3,187.2,191.2,179.6,191.2z M179.7,150.8
		c-4.9,9.9-9.5,19-14.1,28.2c9.6,0,18.7,0,28.2,0C189.1,169.6,184.6,160.5,179.7,150.8z"/>
</g>
</svg>
