<?xml version="1.0" encoding="utf-8"?>
<!-- Generator: Adobe Illustrator 27.3.1, SVG Export Plug-In . SVG Version: 6.00 Build 0)  -->
<svg version="1.1" id="Calque_1" xmlns="http://www.w3.org/2000/svg" xmlns:xlink="http://www.w3.org/1999/xlink" x="0px" y="0px"
	 viewBox="0 0 408.9 306.8" style="enable-background:new 0 0 408.9 306.8;" xml:space="preserve">
<style type="text/css">
	.st0{fill:#0F0042;}
</style>
<g>
	<path class="st0" d="M0,30.4C1.7,22,4.9,14.5,11.6,8.7C18.8,2.4,27.2,0,36.6,0c85,0,170,0,255.1,0c27.1,0,54.3,0,81.4,0
		c14.6,0,25.9,6.1,32.2,19.4c2.3,4.8,3.5,10.5,3.5,15.8c0.2,78.8,0.2,157.6,0.1,236.3c0,20.8-14.9,35.2-36.2,35.2
		c-97.5,0-195.1,0-292.6,0c-14.1,0-28.2-0.4-42.3,0.1c-20.1,0.7-35-12.3-37.3-29.4c-0.1-0.4-0.3-0.7-0.4-1.1C0,194.4,0,112.4,0,30.4
		z M378.5,18.3c-6-2.1-343.9-1.7-347.1,0c0.4,0.4,0.7,0.8,1.1,1.2c53,48.3,105.9,96.7,159,145c8.9,8.1,17.4,7.9,26.6-0.5
		c52.3-47.7,104.6-95.4,156.9-143.1C375.9,20,377,19.4,378.5,18.3z M379,289.2c-45.3-42.7-89.5-84.9-135.9-124.8
		c-4.7,4.3-9.1,8.3-13.6,12.3c-5.8,5.2-12.3,9.2-20.3,10.3c-11.7,1.6-21.3-2.7-29.8-10.4c-4.5-4.1-9-8.1-14.2-12.8
		c-45.1,41.6-90,83-134.8,124.3c0.2,0.4,0.5,0.8,0.7,1.1C146.6,289.2,262.2,289.2,379,289.2z M17.4,276.9
		c45.5-42,90.2-83.2,135.1-124.7C107.9,111.5,63.1,70.6,18.4,29.7c-0.3,0.2-0.6,0.4-1,0.6C17.4,112.3,17.4,194.2,17.4,276.9z
		 M256.3,152.2c45.1,41.6,89.8,82.9,135,124.5c0-82.6,0-164.6,0-247.8C345.7,70.7,300.9,111.6,256.3,152.2z"/>
</g>
</svg>
