<?xml version="1.0" encoding="utf-8"?>
<!-- Generator: Adobe Illustrator 27.3.1, SVG Export Plug-In . SVG Version: 6.00 Build 0)  -->
<svg version="1.1" id="Calque_1" xmlns="http://www.w3.org/2000/svg" xmlns:xlink="http://www.w3.org/1999/xlink" x="0px" y="0px"
	 viewBox="0 0 24.4 37" style="enable-background:new 0 0 24.4 37;" xml:space="preserve">
<style type="text/css">
	.st0{fill:#0F0042;}
</style>
<g>
	<path class="st0" d="M0,10.2c0-1.5,0.5-3.1,1.5-4.7c1-1.6,2.4-2.9,4.3-3.9C7.7,0.5,10,0,12.5,0c2.4,0,4.4,0.4,6.2,1.3
		c1.8,0.9,3.2,2.1,4.2,3.6c1,1.5,1.5,3.1,1.5,4.9c0,1.4-0.3,2.6-0.8,3.6c-0.6,1-1.2,1.9-2,2.7c-0.8,0.8-2.2,2-4.2,3.8
		c-0.6,0.5-1,0.9-1.3,1.3c-0.3,0.4-0.6,0.7-0.7,1c-0.2,0.3-0.3,0.6-0.4,1c-0.1,0.3-0.2,0.9-0.4,1.7c-0.3,1.7-1.3,2.5-2.9,2.5
		c-0.8,0-1.6-0.3-2.1-0.8c-0.6-0.6-0.9-1.4-0.9-2.5c0-1.4,0.2-2.6,0.6-3.6c0.4-1,1-1.9,1.7-2.6c0.7-0.8,1.6-1.7,2.8-2.7
		c1-0.9,1.8-1.6,2.3-2.1s0.9-1,1.2-1.6c0.3-0.6,0.5-1.2,0.5-1.9c0-1.3-0.5-2.4-1.5-3.3c-1-0.9-2.2-1.3-3.7-1.3c-1.8,0-3.1,0.5-4,1.4
		c-0.8,0.9-1.6,2.2-2.1,4c-0.6,1.8-1.6,2.8-3.1,2.8c-0.9,0-1.7-0.3-2.3-1C0.3,11.6,0,11,0,10.2z M11.9,37c-1,0-1.9-0.3-2.6-1
		c-0.7-0.6-1.1-1.5-1.1-2.7c0-1,0.4-1.9,1.1-2.6c0.7-0.7,1.6-1,2.6-1c1,0,1.9,0.4,2.6,1c0.7,0.7,1,1.6,1,2.6c0,1.1-0.4,2-1.1,2.7
		S12.9,37,11.9,37z"/>
</g>
</svg>
