<?xml version="1.0" encoding="utf-8"?>
<!-- Generator: Adobe Illustrator 27.3.1, SVG Export Plug-In . SVG Version: 6.00 Build 0)  -->
<svg version="1.1" id="Calque_1" xmlns="http://www.w3.org/2000/svg" xmlns:xlink="http://www.w3.org/1999/xlink" x="0px" y="0px"
	 viewBox="0 0 235.8 235.9" style="enable-background:new 0 0 235.8 235.9;" xml:space="preserve">
<style type="text/css">
	.st0{fill:#FF4D00;}
</style>
<g>
	<path class="st0" d="M235.8,124.8c-0.6,4.5-1,9-1.8,13.4c-6.6,35.3-25.4,62.4-56,81c-19.9,12.1-41.8,17.6-65.1,16.4
		c-33.4-1.6-61.3-15.1-83.5-40c-16.7-18.8-26.5-40.9-28.8-65.9c-3.4-37.3,8.3-69.4,34.8-95.9C53,16.2,74.5,5.6,99.1,1.5
		C103,0.9,107,0.5,111,0c4.6,0,9.2,0,13.8,0c0.6,0.1,1.2,0.3,1.8,0.4C145,1.7,162.3,7,178,16.6c30.6,18.7,49.4,45.7,56,81
		c0.8,4.4,1.2,8.9,1.8,13.4C235.8,115.6,235.8,120.2,235.8,124.8z M118,12.8c-58-0.1-105.2,47-105.3,105
		c-0.1,58.1,46.9,105.1,105,105.3c58,0.2,105.2-46.9,105.3-105C223.1,60.1,176.1,12.9,118,12.8z"/>
	<path class="st0" d="M168.9,142.9c3.5,2.3,6.9,4.5,10.6,6.9c-13.2,19.2-31.1,30.7-54.2,33c-29.3,2.9-51.8-9.4-69.3-32.9
		c3.8-2.4,7.2-4.7,10.8-7c12.5,17.5,29.2,27.5,50.9,27.5C139.4,170.4,156.2,160.6,168.9,142.9z"/>
	<path class="st0" d="M66.7,91.7c0-7,5.6-12.8,12.7-12.8c7,0,12.8,5.8,12.7,12.8c0,6.9-5.6,12.6-12.6,12.7
		C72.5,104.5,66.7,98.8,66.7,91.7z"/>
	<path class="st0" d="M170.9,91.6c0,7-5.6,12.7-12.6,12.8c-7,0.1-12.8-5.7-12.8-12.7c0-7,5.7-12.7,12.7-12.8
		C165.1,78.8,170.9,84.6,170.9,91.6z"/>
</g>
</svg>
