<?xml version="1.0" encoding="utf-8"?>
<!-- Generator: Adobe Illustrator 27.3.1, SVG Export Plug-In . SVG Version: 6.00 Build 0)  -->
<svg version="1.1" id="Calque_1" xmlns="http://www.w3.org/2000/svg" xmlns:xlink="http://www.w3.org/1999/xlink" x="0px" y="0px"
	 viewBox="0 0 302.8 356.1" style="enable-background:new 0 0 302.8 356.1;" xml:space="preserve">
<style type="text/css">
	.st0{fill:#FF4D00;}
</style>
<g>
	<path class="st0" d="M100,291.4c0-8.4-0.1-16.7,0-25.1c0.2-17.1-6-31.5-18.1-43.6c-20.5-20.4-30.5-45.1-30-74.1
		c0.7-45.8,35.5-86.9,80.6-95c54.8-9.9,105.5,23.8,116.5,78.3c7,34.6-2.8,64.9-27.5,90.2c-9.5,9.7-16,20.6-17.9,34.1
		c-0.5,3.4-0.6,7-0.6,10.4c-0.1,18.2,0,36.4,0,54.6c0,7.1-1.3,8.5-8.2,8.4c-2.6-0.1-3.7,0.7-4.4,3.2c-1.7,6-3.9,11.8-5.6,17.8
		c-1.1,3.7-3.2,5.3-7,5.3c-17.5-0.1-34.9-0.1-52.4,0c-3.8,0-6-1.6-7-5.3c-1.8-6.1-3.9-12.1-5.7-18.2c-0.6-2.1-1.7-2.9-3.9-2.8
		c-7.5,0-8.6-1.2-8.6-8.8C100,311.1,100,301.3,100,291.4z M191.8,275c0.2-0.5,0.4-0.7,0.4-0.9c0.1-2,0.2-4,0.1-6
		c-0.6-21.1,7.1-38.7,22-53.7c20.2-20.3,28.6-45.1,25.5-73.6c-5.4-50.2-54.5-86.8-104.1-77c-34.8,6.9-58.8,27.5-69.3,61.4
		C56,159.2,64.2,189.6,89.1,215c14.2,14.5,21.7,31.4,21.4,51.7c0,2.7,0,5.4,0,8.3C137.8,275,164.7,275,191.8,275z M192.1,285.9
		c-27.3,0-54.3,0-81.4,0c0,11.2,0,22.1,0,33.2c27.2,0,54.2,0,81.4,0C192.1,308,192.1,297.1,192.1,285.9z M122.6,330
		c1.7,5.3,3.3,10.4,5,15.5c15.5,0,30.7,0,45.9-0.1c0.7,0,1.9-0.7,2.2-1.4c1.6-4.5,3-9.2,4.6-14.1C160.8,330,142,330,122.6,330z"/>
	<path class="st0" d="M76.3,232.2c-1.2,2-1.9,3.6-3,4.8c-6.9,7-13.8,14-20.8,20.9c-2.9,2.9-5.9,3.1-8.2,0.7c-2.1-2.2-2-5.3,0.6-7.9
		c7-7.1,14.1-14.1,21.1-21.1c1.8-1.8,4-3,6.3-1.6C73.9,228.8,74.9,230.6,76.3,232.2z"/>
	<path class="st0" d="M232.2,226.7c2,1.2,3.6,1.9,4.8,3.1c7,6.9,14,13.9,20.9,20.9c2.7,2.7,2.9,5.7,0.8,7.9
		c-2.3,2.4-5.3,2.3-8.2-0.6c-7.1-7-14.2-14-21.1-21.2c-1.3-1.3-1.8-4.1-1.4-6C228.3,229.2,230.5,228.1,232.2,226.7z"/>
	<path class="st0" d="M260.7,47.8c-1.1,1.9-1.6,3.3-2.6,4.3c-7.1,7.2-14.2,14.3-21.4,21.4c-2.6,2.6-5.8,2.6-7.9,0.4
		c-2.1-2.2-2.1-5.1,0.4-7.6c7.2-7.3,14.3-14.6,21.8-21.6c1.3-1.2,4.2-1.6,6-1.1C258.4,44,259.4,46.3,260.7,47.8z"/>
	<path class="st0" d="M76.1,70.7c-1.3,1.5-2.3,3.8-3.8,4.2c-1.8,0.5-4.6,0-6-1.2c-4.8-4.3-9.2-9-13.8-13.6c-2.6-2.6-5.3-5.2-7.9-7.9
		c-2.4-2.5-2.4-5.5-0.3-7.6c2-2.1,5.3-2.1,7.7,0.3c7.3,7.1,14.5,14.4,21.6,21.6C74.6,67.4,75.1,68.9,76.1,70.7z"/>
	<path class="st0" d="M156.6,21.2c0,4.9,0,9.7,0,14.6c0,4-2.1,6.2-5.4,6.1c-3.2-0.1-5-2.2-5-6.1c0-9.8,0-19.7,0-29.5
		c0-3.9,2.2-6.4,5.4-6.2c3,0.1,5,2.5,5.1,6.2C156.7,11.2,156.6,16.2,156.6,21.2z"/>
	<path class="st0" d="M281.6,156.8c-4.6,0-9.2,0-13.8,0c-4.4,0-6.8-1.9-6.9-5.2c-0.1-3.2,2.4-5.3,6.7-5.3c9.6,0,19.2,0,28.8,0
		c4.2,0,6.4,1.8,6.4,5.1c0,3.4-2.3,5.3-6.6,5.4C291.3,156.8,286.4,156.8,281.6,156.8z"/>
	<path class="st0" d="M21,146.3c5,0,10-0.1,14.9,0c3.5,0.1,5.8,2,5.9,4.9c0.2,3-2.2,5.4-5.8,5.5c-10.1,0.1-20.2,0.1-30.3,0
		c-3.8,0-5.9-2.2-5.8-5.4c0.1-3.2,2.2-5,6.1-5C11.1,146.2,16.1,146.3,21,146.3z"/>
	<path class="st0" d="M212,189.4c-0.9,1.6-1.5,3.2-2.6,4.2c-5.2,5.4-10.5,10.7-15.9,15.9c-2.9,2.8-5.5,2.8-8.5,0
		c-2.5-2.3-4.7-4.9-7.2-7c-0.8-0.7-2.9-0.9-3.8-0.3c-1.9,1.1-5.4,0.3-5.4,4c0,3.5,0.1,7,0,10.5c-0.1,3.7-1.9,5.6-5.5,5.6
		c-7.7,0.1-15.5,0.1-23.2,0c-3.8-0.1-5.6-2-5.7-5.9c-0.1-2.2-0.3-4.5,0-6.7c0.6-4.1-0.8-6.3-4.9-7.6c-2.4-0.8-3.8-0.6-5.4,1.2
		c-2,2.2-4.1,4.3-6.3,6.4c-2.9,2.7-5.4,2.7-8.2,0c-5.4-5.3-10.8-10.7-16.2-16.1c-2.7-2.7-2.6-5.4,0-8.2c1.6-1.7,3.2-3.6,5-5
		c3.2-2.4,3.6-4.8,1.7-8.5c-1.1-2.2-2.1-3.3-4.6-3.1c-2.7,0.2-5.5,0.1-8.2,0c-4.8-0.1-6.7-1.9-6.7-6.5c-0.1-7.2-0.1-14.5,0-21.7
		c0.1-4.4,1.9-6.1,6.2-6.2c3.1-0.1,6.2-0.2,9.4,0c2.1,0.1,3.4-0.6,3.7-2.7c0.4-2.4,3.7-4.5,0.3-7.2c-2.4-1.9-4.5-4.3-6.6-6.6
		c-2.8-2.9-2.9-5.7-0.1-8.5c5.2-5.4,10.5-10.6,15.9-15.9c2.9-2.8,5.6-2.8,8.5,0c2.4,2.2,4.5,4.7,7,6.8c1,0.8,3.1,1.1,4.1,0.6
		c2-1.1,5.7-0.3,5.4-4.4c-0.2-3.2-0.1-6.5,0-9.7c0.1-4.1,1.9-6,5.9-6.1c7.5-0.1,15-0.1,22.5,0c4.2,0,6,1.9,6.1,6.3
		c0,2.2,0.2,4.5,0,6.7c-0.4,3.7,0.5,5.9,4.5,7.1c2.7,0.8,4.3,0.8,6.1-1.3c1.8-2.2,4-4.1,6.1-6.1c2.7-2.6,5.3-2.8,7.9-0.3
		c5.7,5.5,11.2,11,16.7,16.7c2.4,2.4,2.2,5.2,0,7.7c-1.7,1.9-3.3,3.8-5.3,5.3c-3.2,2.4-3.6,4.8-1.8,8.5c1.2,2.4,2.3,3.4,4.9,3.2
		c2.9-0.2,5.7-0.1,8.6,0c3.9,0.1,5.9,1.8,6,5.6c0.1,7.7,0.1,15.5,0,23.2c-0.1,3.6-2.1,5.4-5.7,5.6c-3.4,0.2-6.8-0.2-10.1,0.2
		c-1.2,0.1-2.9,1.4-3.2,2.5c-0.6,2.2-3.8,4.2-0.7,6.9c2.5,2.1,4.7,4.5,6.9,6.9C210.4,186.3,211,187.8,212,189.4z M113.8,199.1
		c2.6-2.7,5-5.2,7.3-7.8c2.3-2.5,4.8-2.6,7.8-1.1c3.6,1.8,7.2,3.3,11,4.6c3.4,1.1,4.9,3.1,4.8,6.6c-0.1,3.4,0,6.9,0,10.2
		c4.8,0,9,0,13.5,0c0-3.7,0-7.2,0-10.6c0-3.2,1.4-5,4.5-6.1c4-1.4,7.9-3.1,11.7-4.9c2.7-1.3,5-1.1,7.1,1.1c2.5,2.6,5,5.2,7.1,7.5
		c3.5-3.3,6.7-6.3,10.3-9.7c-2.6-2.5-5.2-4.8-7.7-7.2c-2.3-2.2-2.5-4.6-1.1-7.4c1.7-3.6,3.4-7.2,4.6-11c1.1-3.6,3.2-5.1,6.8-4.9
		c3.3,0.1,6.6,0,10.2,0c0-4.7,0-8.9,0-13.5c-3.5,0-6.8,0-10.1,0c-3.5,0-5.7-1.4-6.8-5c-1.1-3.7-2.7-7.2-4.4-10.7
		c-1.6-3.1-1.4-5.7,1.2-8.1c2.5-2.3,5-4.8,7.2-6.9c-3.5-3.5-6.5-6.6-9.9-10c-2.2,2.4-4.5,4.8-6.8,7.3c-2.4,2.6-4.9,2.8-8.1,1.3
		c-3.6-1.7-7.3-3.2-11-4.5c-3.3-1.1-4.8-3.2-4.7-6.7c0.1-3.4,0-6.9,0-10.2c-4.8,0-9,0-13.5,0c0,3.5-0.1,6.9,0,10.2
		c0.1,3.5-1.4,5.5-4.7,6.7c-3.7,1.3-7.4,2.8-11,4.5c-3.1,1.5-5.7,1.3-8-1.3c-2.2-2.5-4.6-4.9-6.6-7.1c-3.5,3.5-6.6,6.7-9.8,10
		c2.2,2.1,4.5,4.5,7,6.8c2.6,2.4,2.7,5,1.2,8.1c-1.7,3.3-3.3,6.7-4.3,10.3c-1.1,4-3.5,5.5-7.3,5.4c-3.2-0.1-6.4,0-9.6,0
		c0,4.8,0,9.1,0,13.5c3.7,0,7.1,0.1,10.4,0c3.3-0.1,5.3,1.4,6.3,4.6c1.3,3.8,2.8,7.5,4.5,11c1.6,3.1,1.4,5.7-1.2,8
		c-2.6,2.3-5.2,4.5-7.9,6.8C107.3,192.6,110.3,195.6,113.8,199.1z"/>
	<path class="st0" d="M182.1,151.7c0,16.8-13.9,30.6-30.8,30.6c-17,0-30.8-13.9-30.7-31.1c0.1-16.9,14-30.7,30.8-30.6
		C168.6,120.9,182.2,134.5,182.1,151.7z M131.1,151.4c0,11.1,8.9,20.3,19.9,20.5c11.2,0.2,20.5-9,20.6-20.2
		c0.1-11.3-9-20.4-20.3-20.4C140.1,131.3,131.2,140.2,131.1,151.4z"/>
</g>
</svg>
