<?xml version="1.0" encoding="utf-8"?>
<!-- Generator: Adobe Illustrator 27.3.1, SVG Export Plug-In . SVG Version: 6.00 Build 0)  -->
<svg version="1.1" id="Calque_1" xmlns="http://www.w3.org/2000/svg" xmlns:xlink="http://www.w3.org/1999/xlink" x="0px" y="0px"
	 viewBox="0 0 227.4 335.5" style="enable-background:new 0 0 227.4 335.5;" xml:space="preserve">
<style type="text/css">
	.st0{fill:#0F0042;}
</style>
<g>
	<path class="st0" d="M94.3,206c-15.9,0-31.2,0-46.6,0c-13.2,0-26.4,0-39.7,0c-7.8,0-10-3.9-6.4-10.8c4.2-7.9,8.4-15.8,12.7-23.7
		c1.4-2.5,3.7-4.4,6.4-3.4c2,0.8,3.9,2.9,4.9,4.9c0.6,1.1-0.4,3.4-1.1,4.8c-2.6,5.2-5.4,10.3-8.6,16.2c1.8,0,3.1,0,4.4,0
		c26.7,0,53.4,0,80.1,0c7.8,0,10.2,3.3,7.4,10.6c-11.3,29.8-22.7,59.6-34.1,89.3c-0.4,1.1-0.8,2.3-0.6,3.9
		C118,246,162.8,194.1,208.3,141.5c-5.2,0-9.5,0-13.8,0c-2.5,0-5,0.1-7.5,0c-4-0.2-6.7-2.8-6.5-6.2c0.1-3.4,2.7-5.6,6.6-5.7
		c4.9-0.1,9.7,0,14.6,0c6.1,0,12.2,0.1,18.3,0c3,0,5.4,0.7,6.8,3.6c1.4,3,0.1,5.3-1.8,7.5c-9.6,11-19.1,22.1-28.6,33.1
		c-45.5,52.6-91,105.3-136.5,157.9c-0.2,0.3-0.5,0.6-0.7,0.9c-2.8,3.2-5.7,3.9-8.5,2c-3.1-2.1-3.3-5-2-8.2
		c5.1-13.2,10.1-26.5,15.2-39.8c9.7-25.5,19.4-50.9,29.2-76.4C93.4,208.9,93.7,207.7,94.3,206z"/>
	<path class="st0" d="M208.2,12.1c-15,0-29.2,0-43.4,0c-16,0-31.9,0.1-47.9-0.1c-2.8,0-4.1,0.9-5.4,3.3
		C88.8,57.8,66,100.3,43.3,142.9c-0.6,1.2-1.2,2.5-2.1,3.5c-2,2.6-4.6,3.4-7.6,1.8c-2.9-1.6-3.7-4.2-2.7-7.4c0.3-1.1,1-2,1.5-3
		C56,93.8,79.6,49.7,103,5.6c2.2-4.1,4.9-5.6,9.4-5.6c35.4,0.1,70.9,0.1,106.3,0.1c0.4,0,0.7,0,1.1,0c3-0.2,5.4,0.6,6.9,3.5
		c1.5,3.1,0.1,5.5-1.9,7.8c-7.8,8.9-15.5,17.9-23.2,26.9c-25.4,29.4-50.9,58.9-76.3,88.3c-0.6,0.7-1.2,1.5-2.1,2.7
		c1.5,0.1,2.5,0.2,3.6,0.2c7.9,0,15.7,0,23.6,0c3.8,0,6.4,2.5,6.4,5.8c0,3.3-2.5,5.8-6.3,6.1c-0.6,0-1.2,0-1.9,0
		c-12.2,0-24.4,0-36.7,0c-3.1,0-6.1-0.3-7.6-3.6c-1.5-3.2,0.1-5.7,2.2-8.1c24.4-28.2,48.8-56.4,73.2-84.6
		c8.6-9.9,17.1-19.8,25.7-29.7C206.2,14.6,206.9,13.6,208.2,12.1z"/>
</g>
</svg>
