<?xml version="1.0" encoding="utf-8"?>
<!-- Generator: Adobe Illustrator 27.3.1, SVG Export Plug-In . SVG Version: 6.00 Build 0)  -->
<svg version="1.1" id="Calque_1" xmlns="http://www.w3.org/2000/svg" xmlns:xlink="http://www.w3.org/1999/xlink" x="0px" y="0px"
	 viewBox="0 0 408.8 408.7" style="enable-background:new 0 0 408.8 408.7;" xml:space="preserve">
<style type="text/css">
	.st0{fill:#FF4D00;stroke:#FFFFFF;stroke-width:10;stroke-miterlimit:10;}
</style>
<g>
	<path class="st0" d="M0,192.3c1.1-7.9,1.8-15.8,3.2-23.6C11.6,122,33.7,82.9,69.1,51.4c32.6-29.1,71-45.6,114.5-50.4
		c6.9-0.8,13.8-1,20.7-1c8.4,0,14.9,6.3,15.4,14.2c0.5,8.5-5,15.3-13.6,16.2c-8.6,0.9-17.3,1-25.8,2.1
		c-32.3,4.3-61.1,17.1-86.1,37.9C65.6,94.2,45.5,124,36.7,160.3C22.1,220,34.7,273.6,75.5,320c27,30.7,61.1,49.5,101.4,55.6
		c53,8,100.5-5.4,141.3-40.5c26.9-23.2,45.3-52.1,53.9-86.7c3.1-12.4,3.9-25.4,5.7-38.1c0.3-2.2,0.1-4.5,0.4-6.8
		c1.1-9.3,7.5-14.9,16.3-14.4c8.3,0.4,14.3,7.2,14.3,16.1c-0.1,18-2.1,35.9-7.3,53.2c-22.9,75-72.1,123.3-147.8,144.1
		c-10.9,3-22.5,3.7-33.8,5.5c-1.2,0.2-2.3,0.5-3.5,0.7c-8,0-16,0-24,0c-1-0.2-2-0.6-3.1-0.7c-32-2.3-61.9-11.4-89.2-28.1
		c-53-32.4-85.5-79.2-97-140.4C1.8,231.8,1,224,0,216.3C0,208.3,0,200.3,0,192.3z"/>
	<path class="st0" d="M191,240.9c1.2-1.7,1.9-3.2,3.1-4.3C253.8,177,313.6,117.4,373.3,57.8c4.4-4.4,9.1-7.4,15.5-6.2
		c11.6,2.1,16.7,15.4,9.3,24.7c-1,1.2-2.1,2.4-3.3,3.5C331,143.5,267.1,207.2,203.2,270.9c-9.3,9.3-17.8,9.2-26.6-0.4
		c-24.8-26.9-49.6-53.8-74.4-80.8c-7.3-7.9-6.7-18.3,1.2-24c5.8-4.2,13.4-3.9,18.8,0.7c1.3,1.1,2.5,2.4,3.7,3.7
		c20.7,22.4,41.3,44.8,61.9,67.2C188.7,238.2,189.4,239.1,191,240.9z"/>
</g>
</svg>
