<?xml version="1.0" encoding="utf-8"?>
<!-- Generator: Adobe Illustrator 27.3.1, SVG Export Plug-In . SVG Version: 6.00 Build 0)  -->
<svg version="1.1" id="Calque_1" xmlns="http://www.w3.org/2000/svg" xmlns:xlink="http://www.w3.org/1999/xlink" x="0px" y="0px"
	 viewBox="0 0 43.1 25.6" style="enable-background:new 0 0 43.1 25.6;" xml:space="preserve">
<style type="text/css">
	.st0{fill:#0F0042;}
	.st1{fill:none;stroke:#0F0042;stroke-width:3;stroke-linecap:round;stroke-miterlimit:10;}
</style>
<path class="st0" d="M21.6,6.2C21.2,6.6,21,6.8,20.8,7C15,12.8,9.2,18.6,3.3,24.5c-0.2,0.2-0.6,0.6-0.8,0.8
	c-0.6,0.4-1.5,0.2-2.1-0.2c-0.4-0.6-0.6-1.2-0.2-1.9c0.2-0.2,0.4-0.6,0.6-0.8c6-6,12.3-12.3,18.3-18.3c1.7-1.7,3.1-1.7,4.8,0
	c6,6,12.3,12.3,18.3,18.3c0.2,0.2,0.4,0.4,0.6,0.8c0.4,0.6,0.2,1.5-0.2,1.9c-0.6,0.6-1.2,0.6-1.9,0.2c-0.4-0.2-0.6-0.4-1-0.8
	C33.9,18.7,28.1,12.9,22.2,7C22,7,21.8,6.6,21.6,6.2z"/>
<line class="st1" x1="1.5" y1="1.5" x2="41.5" y2="1.5"/>
</svg>
