<?xml version="1.0" encoding="utf-8"?>
<!-- Generator: Adobe Illustrator 27.3.1, SVG Export Plug-In . SVG Version: 6.00 Build 0)  -->
<svg version="1.1" id="Calque_1" xmlns="http://www.w3.org/2000/svg" xmlns:xlink="http://www.w3.org/1999/xlink" x="0px" y="0px"
	 viewBox="0 0 379.9 512" style="enable-background:new 0 0 379.9 512;" xml:space="preserve">
<style type="text/css">
	.st0{fill:#0F0042;}
</style>
<g>
	<path class="st0" d="M112,512c-2.6-3.3-6.1-6.2-7.5-9.9C97,482.1,90,462,83,441.9c-1.2-3.4-2.5-4.3-6.1-3.5
		c-20.5,4.4-41.1,8.5-61.6,12.9c-5,1.1-9.3,0.8-12.5-3.6c-3.3-4.5-1.8-8.7,0.7-13c18.9-33.1,37.6-66.3,56.5-99.4
		c1.9-3.3,1.8-5.2-1.1-7.9C-33.4,238.6-14.6,87.8,96.6,24.5c13.8-7.9,28.4-13.8,43.8-17.9c7.5-2,13,0.4,14.5,6.4
		c1.5,6.1-1.8,10.7-9.3,12.9C87.1,43,47.3,80.2,28.3,138c-32.1,97.7,30.3,200.9,131.6,219.2c90.8,16.4,178-42.7,196.8-133.4
		c18-87.2-35.8-174.7-121.8-197.8c-4-1.1-8.3-2.3-9.2-6.7c-0.7-3.1-0.1-7,1.3-9.8c2.1-3.9,6.5-4.6,10.6-3.5c6.7,1.9,13.5,3.7,20,6.3
		c68.2,28.2,109.6,78.5,120.2,151.6c9.2,63.6-11.1,118.2-56.8,163.3c-2.8,2.8-3,4.6-1.1,7.9c18.9,33.1,37.8,66.2,56.4,99.5
		c1.6,2.8,2.6,6.7,2.1,9.8c-0.8,5.5-6.4,8.3-12.4,7c-20.9-4.3-41.7-8.5-62.5-13.1c-4-0.9-5.4,0.1-6.7,3.8
		c-6.8,19.8-14,39.5-20.9,59.3c-1.5,4.4-3.6,8.2-7.9,10.3c-2,0-4,0-6,0c-2.6-2.9-5.8-5.5-7.7-8.8c-20.5-35.8-40.9-71.7-61.3-107.5
		c-0.9-1.5-1.8-3-3.1-5c-1.2,2-2.2,3.5-3.1,5c-20.4,35.9-40.7,71.8-61.3,107.5c-1.9,3.3-5.1,5.9-7.7,8.8C116,512,114,512,112,512z
		 M78.2,343.7c-15.8,27.8-31.4,55.4-47.5,83.7c2.4-0.4,4-0.5,5.6-0.8c15.6-3.2,31.3-6.5,46.9-9.7c8.7-1.8,12,0.1,15.1,8.7
		c5.6,15.7,11.1,31.3,16.7,47c0.5,1.5,1.2,3,2.1,5.3c18.9-33.2,37.3-65.7,56-98.5C138,375.7,106.7,364,78.2,343.7z M262.8,477.8
		c0.9-2.3,1.6-3.8,2.1-5.3c5.6-15.7,11.1-31.3,16.7-47c3.1-8.5,6.3-10.4,15.1-8.6c8,1.6,16,3.3,23.9,5c9.2,1.9,18.4,3.7,28.7,5.8
		c-16.2-28.5-31.8-56.1-47.6-83.9c-28.6,20.4-59.9,32.1-94.9,35.6C225.5,412.3,243.9,444.6,262.8,477.8z"/>
	<path class="st0" d="M193,0c0.8,0.6,1.6,1.1,2.4,1.7c3.9,2.8,5.6,6.6,4.1,11.2c-1.5,4.6-4.9,7.1-9.7,7c-4.6-0.1-7.8-2.6-9.2-7
		c-1.5-4.7,0.2-8.4,4.1-11.2c0.8-0.6,1.6-1.1,2.4-1.7C189,0,191,0,193,0z"/>
	<path class="st0" d="M40,189.3C40.4,106.6,108.1,39.6,190.7,40c82.7,0.5,149.8,68.2,149.2,150.9c-0.6,82.6-68.1,149.4-150.5,149.1
		C106.7,339.7,39.6,272,40,189.3z M189.8,320c71.7,0.1,130.2-58.3,130.2-129.9c0-71.5-58.1-129.8-129.6-130.1
		C118.7,59.8,60.1,118,60,189.7C59.8,261.4,118.1,319.9,189.8,320z"/>
	<path class="st0" d="M127.1,264.9c2.1-12.6,3.3-25.6,6.6-38.1c3.1-11.8,1-20.2-8.8-27.9c-9.5-7.5-17.4-16.9-26.2-25.4
		c-3.4-3.3-5.3-6.9-3.7-11.6c1.6-4.7,5.3-6.3,10-7c15.8-2.2,31.6-4.8,47.4-7c3.1-0.4,4.9-1.7,6.4-4.6c7-14.4,14.2-28.6,21.3-42.9
		c2-4.2,4.7-7.3,9.7-7.4c5.3-0.1,8,3.1,10.2,7.4c7,14.2,14.2,28.2,21.1,42.5c1.6,3.3,3.7,4.6,7.1,5.1c15.8,2.2,31.6,4.7,47.4,7
		c4.5,0.7,7.9,2.6,9.4,7c1.4,4.5-0.2,8.1-3.4,11.2c-11.7,11.4-23.2,23-34.9,34.3c-2.2,2.1-2.7,4-2.2,7c2.9,16.2,5.5,32.5,8.2,48.7
		c0.7,4.1-0.4,7.7-3.7,10.2c-3.7,2.9-7.7,2.6-11.7,0.5c-14.3-7.5-28.7-14.8-42.9-22.4c-3.2-1.7-5.6-1.6-8.7,0.1
		c-14.2,7.6-28.6,15-43,22.3C134.8,278,126.9,273.4,127.1,264.9z M229.7,247.5c-1.6-9.5-3.1-17.8-4.3-26.2
		c-2.9-19.8-5.4-15.5,9.5-30.3c6.2-6.2,12.1-12.6,18.4-19.1c-1.9-0.3-3.6-0.7-5.4-1c-10.5-1.6-21-3.3-31.6-4.8
		c-4.4-0.6-7.3-2.9-9.2-6.7c-2.2-4.5-4.5-8.9-6.7-13.4c-3.3-6.6-6.6-13.2-10.3-20.5c-1.2,2.2-2,3.5-2.8,5
		c-4.6,9.2-9.3,18.4-13.8,27.7c-2.3,4.7-5.5,7.6-10.9,8.2c-5.9,0.6-11.8,1.7-17.8,2.6c-6.1,1-12.2,1.9-17.8,2.8
		c8.3,8.7,16.2,17.2,24.4,25.4c4.1,4.1,6.3,8.3,4.7,14.2c-1,3.7-1.3,7.5-1.9,11.3c-1.3,7.9-2.5,15.8-3.9,24.7
		c11.5-6,22-11.2,32.3-16.9c5.1-2.8,9.5-2.8,14.6,0C207.6,236.3,218.1,241.5,229.7,247.5z"/>
</g>
</svg>
